<svg id="svg-logo" style="enable-background:new 0 0 263 83;" version="1.1" viewBox="0 0 263 83" x="0px" xml:space="preserve" xmlns="http://www.w3.org/2000/svg" xmlns:xlink="http://www.w3.org/1999/xlink" y="0px">
<style type="text/css">
	.st0{fill:url(#SVGID_1_);}
	.st1{fill:url(#SVGID_2_);}
	.st2{fill:url(#SVGID_3_);}
	.st3{fill:url(#SVGID_4_);}
	.st4{fill:url(#SVGID_5_);}
	.st5{fill:url(#SVGID_6_);}
	.st6{fill:url(#SVGID_7_);}
	.st7{fill:#002035;}
</style>
<g>
<g>
<g>
<g>
<g>
<linearGradient gradientUnits="userSpaceOnUse" id="SVGID_1_" x1="16.7922" x2="81.9146" y1="-6.4124" y2="90.0653">
<stop offset="0" style="stop-color:#00ABE7"></stop>
<stop offset="1" style="stop-color:#2000FF"></stop>
</linearGradient>
<path class="st0" d="M31.6,58.8h47.5c1.6-3.5,2.7-7.4,3.2-11.5H31.6V58.8z"></path>
<linearGradient gradientUnits="userSpaceOnUse" id="SVGID_2_" x1="-16.2657" x2="48.8568" y1="15.9016" y2="112.3793">
<stop offset="0" style="stop-color:#00ABE7"></stop>
<stop offset="1" style="stop-color:#2000FF"></stop>
</linearGradient>
<rect class="st1" height="11.5" width="30" x="1.6" y="58.8"></rect>
<linearGradient gradientUnits="userSpaceOnUse" id="SVGID_3_" x1="-5.5883" x2="59.5342" y1="8.6944" y2="105.1721">
<stop offset="0" style="stop-color:#00ABE7"></stop>
<stop offset="1" style="stop-color:#2000FF"></stop>
</linearGradient>
<rect class="st2" height="11.5" width="30" x="1.6" y="35.7"></rect>
<linearGradient gradientUnits="userSpaceOnUse" id="SVGID_4_" x1="2.1921" x2="67.3146" y1="3.4426" y2="99.9203">
<stop offset="0" style="stop-color:#00ABE7"></stop>
<stop offset="1" style="stop-color:#2000FF"></stop>
</linearGradient>
<path class="st3" d="M38.2,81.8c13.5,0,24.8-4.2,32.7-11.5H31.6v11.5H38.2z"></path>
<linearGradient gradientUnits="userSpaceOnUse" id="SVGID_5_" x1="5.0891" x2="70.2115" y1="1.4871" y2="97.9649">
<stop offset="0" style="stop-color:#00ABE7"></stop>
<stop offset="1" style="stop-color:#2000FF"></stop>
</linearGradient>
<rect class="st4" height="11.5" width="30" x="1.6" y="12.7"></rect>
<linearGradient gradientUnits="userSpaceOnUse" id="SVGID_6_" x1="26.3757" x2="91.4982" y1="-12.8813" y2="83.5964">
<stop offset="0" style="stop-color:#00ABE7"></stop>
<stop offset="1" style="stop-color:#2000FF"></stop>
</linearGradient>
<path class="st5" d="M79.1,24.2H31.6v11.5h50.7C81.7,31.6,80.7,27.7,79.1,24.2z"></path>
<linearGradient gradientUnits="userSpaceOnUse" id="SVGID_7_" x1="31.5549" x2="96.6774" y1="-16.3773" y2="80.1004">
<stop offset="0" style="stop-color:#00ABE7"></stop>
<stop offset="1" style="stop-color:#2000FF"></stop>
</linearGradient>
<path class="st6" d="M38.2,1.2h-6.6v11.5h39.3C63,5.4,51.7,1.2,38.2,1.2z"></path>
</g>
</g>
</g>
</g>
<g>
<path class="st7" d="M101.3,57.7c-1.4-0.5-2.7-1.1-3.8-2c-1.2-0.9-2.1-1.9-2.8-3l2.5-2.4c0.6,0.9,1.3,1.7,2.2,2.4
			c0.9,0.7,1.9,1.2,2.9,1.6c1,0.4,2.1,0.6,3.1,0.6c1.6,0,3.1-0.3,4.3-1c1.2-0.7,2.2-1.5,2.8-2.7c0.7-1.1,1-2.4,1-3.8
			c0-1.5-0.4-2.8-1.2-3.9c-0.7-1.1-1.8-2-3.1-2.6c-1.4-0.6-2.9-0.9-4.7-0.9c-0.6,0-1.2,0-1.8,0.1l-1.8,0.1V38l10-9.9H96l0-3.5h20.3
			l0,3.1l-10.2,9.9c0.5,0,0.9-0.1,1.4-0.1c2,0,3.7,0.4,5.2,1.2c1.5,0.8,2.6,2,3.5,3.5c0.8,1.5,1.2,3.3,1.3,5.4
			c0,2.1-0.5,3.9-1.5,5.5c-1,1.6-2.4,2.9-4.2,3.8c-1.8,0.9-3.9,1.4-6.3,1.4C104.1,58.4,102.7,58.1,101.3,57.7z"></path>
<path class="st7" d="M143.1,26.5c2.5,1.3,4.5,3.1,5.8,5.6c1.3,2.4,2,5.4,2,8.9c0,3.6-0.6,6.6-1.9,9.2c-1.3,2.5-3.2,4.4-5.6,5.8
			c-2.5,1.3-5.5,2-9,2h-10.1l0-33.2h9.8C137.5,24.6,140.6,25.3,143.1,26.5z M141.1,52.8c1.9-1,3.3-2.6,4.3-4.6c1-2,1.5-4.4,1.5-7.2
			c0-2.7-0.5-5-1.5-6.9c-1-1.9-2.5-3.4-4.4-4.4c-1.9-1-4.2-1.5-6.9-1.5h-5.7v26.3h6.1C137,54.4,139.2,53.8,141.1,52.8z"></path>
<path class="st7" d="M156.5,24.6h20.2v3.7h-16.1v10.9h14.7v3.5h-14.7v15.2h-4.1V24.6z"></path>
<path class="st7" d="M209,24.6l-12.7,19.3v14h-4.1V44l-12.8-19.4h5l9.7,15.2h0.2l9.7-15.2H209z"></path>
<path class="st7" d="M217.5,55v2.8h-2.8V55H217.5z"></path>
<path class="st7" d="M244,57.9h-2.1v-4.2h-0.1c-0.7,1.5-1.9,2.6-3.6,3.5c-1.7,0.8-3.6,1.3-5.8,1.3c-1.5,0-2.8-0.3-4.1-0.9
			c-1.2-0.6-2.2-1.5-2.9-2.6c-0.7-1.1-1.1-2.3-1.1-3.6c0-4.4,3-7,9-7.9c1.4-0.2,2.7-0.3,4-0.4c1.3-0.1,2.8-0.2,4.6-0.3
			c-0.1-1.7-0.5-3.1-1-4.2c-0.6-1.1-1.4-2-2.6-2.6c-1.2-0.6-2.7-0.9-4.7-0.9c-1.1,0-2.2,0.1-3.4,0.4c-1.2,0.3-2.3,0.6-3.3,1
			l-0.4-1.7c1.1-0.5,2.2-0.8,3.5-1.1c1.3-0.3,2.5-0.4,3.7-0.4c2.5,0,4.6,0.4,6.1,1.3c1.5,0.8,2.6,2.1,3.3,3.6c0.7,1.6,1,3.6,1,6
			V57.9z M236.7,56c1.3-0.5,2.3-1.2,3.2-2.1c0.9-0.9,1.5-1.9,1.9-3.1v-6.5c-1.8,0.1-3.3,0.2-4.6,0.3c-1.3,0.1-2.6,0.2-4,0.4
			c-2.3,0.3-4,1-5.2,2c-1.2,1-1.8,2.4-1.8,4.3c0,1,0.3,1.9,0.8,2.7c0.6,0.8,1.3,1.5,2.3,2c1,0.5,2,0.7,3.1,0.7
			C234.1,56.7,235.5,56.4,236.7,56z"></path>
<path class="st7" d="M250.6,25h2.7v2.7h-2.7V25z M250.9,33.7h2.1v24.2h-2.1V33.7z"></path>
</g>
</g>
</svg>