<svg xmlns="http://www.w3.org/2000/svg" viewBox="0 0 407.9 110.44" margin="dense" style="margin-top: 5px; height: 45px; max-width: unset;"><defs><style>.adaptable-lockup_svg__cls-1{fill:#dd1e50}.adaptable-lockup_svg__cls-2{fill:#363a94}</style></defs><g id="adaptable-lockup_svg__Layer_2" data-name="Layer 2"><g id="adaptable-lockup_svg__Layer_1-2" data-name="Layer 1"><g id="adaptable-lockup_svg__Color_Lockup" data-name="Color Lockup"><g id="adaptable-lockup_svg__Color_logo" data-name="Color logo"><path id="adaptable-lockup_svg__Lower_Right_tear" data-name="Lower Right tear" class="adaptable-lockup_svg__cls-1" d="M47.8 80.49A78.4 78.4 0 0144.18 90l-.07.15v20.29a4 4 0 003.34-2.29c.56-1.11 1.79-3.26 3.79-7 4.34-8.18 7-14.71 8.42-20.64z"></path><path id="adaptable-lockup_svg__Lower_left_tear" data-name="Lower left tear" class="adaptable-lockup_svg__cls-1" d="M40.42 80.49H28.56C30 86.42 32.64 93 37 101.13c2 3.76 3.23 5.91 3.79 7a4 4 0 003.34 2.29V90.15L44 90a78.4 78.4 0 01-3.58-9.51z"></path><path id="adaptable-lockup_svg__Upper_right_tear" data-name="Upper right tear" class="adaptable-lockup_svg__cls-2" d="M61.22 67.35c0-9-3.8-25.8-16.59-26.18H44v11c4.87 1.09 6 12.09 6 14.79a46.9 46.9 0 01-2.2 13.53h11.86a53.54 53.54 0 001.56-13.14z"></path><path id="adaptable-lockup_svg__Upper_left_tear" data-name="Upper left tear" class="adaptable-lockup_svg__cls-2" d="M38.19 67c0-2.7 1.12-13.7 6-14.79v-11H43.6C30.8 41.55 27 58.34 27 67.35a53.54 53.54 0 001.56 13.14h11.86A46.9 46.9 0 0138.19 67z"></path><path id="adaptable-lockup_svg__Triangle" class="adaptable-lockup_svg__cls-2" d="M81.75 81.91h-76a4.25 4.25 0 01-1.93-.42A6.4 6.4 0 01.6 73L31 8.33A14.34 14.34 0 0144.11 0a14.47 14.47 0 0113.11 8.33L87.62 73a6.24 6.24 0 01-.6 6.34 6.46 6.46 0 01-5.27 2.57zM14.9 70.17h58.42L46.59 13.32a2.66 2.66 0 00-2.48-1.57 2.68 2.68 0 00-2.49 1.57z"></path></g><path class="adaptable-lockup_svg__cls-2" d="M131.63 21.8a5.51 5.51 0 011.87 4.35v50.11a5.88 5.88 0 01-1.78 4.48 7.46 7.46 0 01-9.48 0 5.89 5.89 0 01-1.79-4.48v-.7a13.3 13.3 0 01-5.45 5.18 16.7 16.7 0 01-8 1.87 17.39 17.39 0 01-9.79-2.83 18.7 18.7 0 01-6.7-7.91 27.19 27.19 0 01-2.39-11.71 26.58 26.58 0 012.39-11.61A17.53 17.53 0 01107 38.15a16.81 16.81 0 017.93 1.85 13.15 13.15 0 015.44 5.13V25.89a5.35 5.35 0 011.74-4.18 6.64 6.64 0 014.61-1.57 7.14 7.14 0 014.91 1.66zM118 69.43c1.66-2.12 2.48-5.15 2.48-9.09s-.82-7-2.48-9.05a8.49 8.49 0 00-7.09-3.13 8.68 8.68 0 00-7.13 3.09q-2.52 3.09-2.52 8.91t2.52 9.18a9.45 9.45 0 0014.22.09zM172.13 42.72q4.53 4.58 4.53 14v19.63a6 6 0 01-1.66 4.48 6.34 6.34 0 01-4.61 1.61 6.07 6.07 0 01-4.48-1.7 6 6 0 01-1.69-4.39v-.61a10.24 10.24 0 01-4.36 5 13.56 13.56 0 01-7.13 1.83 17.53 17.53 0 01-7.87-1.74 13.75 13.75 0 01-5.57-4.83 12.5 12.5 0 01-2-7 10.75 10.75 0 012.4-7.4c1.59-1.79 4.16-3.1 7.7-3.91a68.07 68.07 0 0114.53-1.22h2.26v-1.53q0-3.64-1.61-5.3c-1.08-1.1-2.86-1.66-5.35-1.66s-6.09.87-10.79 2.61a8.23 8.23 0 01-3.39 1 3.77 3.77 0 01-3.05-1.35 5.31 5.31 0 01-1.13-3.52 4.93 4.93 0 01.78-2.87 7.3 7.3 0 012.53-2.09 28.32 28.32 0 017.44-2.61 40.36 40.36 0 018.65-1q9.35 0 13.87 4.57zM161.78 71a9.46 9.46 0 002.35-6.66v-1.48h-1.48q-7.05 0-9.88 1.13a4.1 4.1 0 00-2.77 4.09 5.18 5.18 0 001.61 4 5.66 5.66 0 004 1.52 8 8 0 006.17-2.6zM218.11 41a18.8 18.8 0 016.7 7.92 27.26 27.26 0 012.39 11.7 26.66 26.66 0 01-2.39 11.61 17.53 17.53 0 01-16.49 10.4 17.29 17.29 0 01-7.87-1.78 13 13 0 01-5.44-5v16.42a5.32 5.32 0 01-1.74 4.17 6.59 6.59 0 01-4.61 1.56 7.13 7.13 0 01-4.91-1.65 5.54 5.54 0 01-1.87-4.35V44.5a5.9 5.9 0 011.78-4.5 6.6 6.6 0 014.74-1.69 6.45 6.45 0 014.7 1.69 6 6 0 011.74 4.48v.7a13.32 13.32 0 015.48-5.18 17.07 17.07 0 018-1.87 17.47 17.47 0 019.79 2.87zm-6.48 28.54q2.52-3.09 2.52-8.92t-2.52-9.18a8.5 8.5 0 00-7.13-3.26 8.6 8.6 0 00-7.14 3.17q-2.52 3.18-2.52 9.09t2.52 9a8.58 8.58 0 007.14 3.18 8.68 8.68 0 007.13-3.1z"></path><path class="adaptable-lockup_svg__cls-2" d="M257.74 74.17a4.32 4.32 0 011.26 3.31 4.27 4.27 0 01-2 3.82 9.35 9.35 0 01-5.75 1l-2.43-.18Q233.56 81 233.55 66.25V49h-3.48a6.56 6.56 0 01-4.35-1.26 4.51 4.51 0 01-1.48-3.61 4.61 4.61 0 011.48-3.7 6.56 6.56 0 014.35-1.26h3.48v-6.76a5.86 5.86 0 011.79-4.52 6.81 6.81 0 014.83-1.66 6.68 6.68 0 014.83 1.66 5.94 5.94 0 011.74 4.52v6.79h6.09c3.94 0 5.92 1.65 5.92 5a4.51 4.51 0 01-1.48 3.61 6.72 6.72 0 01-4.49 1.19h-6.09v18.21a5.74 5.74 0 001.22 4 5.06 5.06 0 003.56 1.52l2.44.18a6.11 6.11 0 013.83 1.26z"></path><path class="adaptable-lockup_svg__cls-2" d="M292.36 42.72q4.53 4.58 4.53 14v19.63a6 6 0 01-1.65 4.48 6.37 6.37 0 01-4.62 1.61 6.07 6.07 0 01-4.48-1.7 6 6 0 01-1.69-4.39v-.61a10.22 10.22 0 01-4.35 5 13.59 13.59 0 01-7.1 1.87 17.53 17.53 0 01-7.87-1.74 13.75 13.75 0 01-5.61-4.87 12.49 12.49 0 01-2-7 10.74 10.74 0 012.39-7.4c1.59-1.79 4.16-3.1 7.7-3.91a68.13 68.13 0 0114.53-1.22h2.26v-1.53q0-3.64-1.61-5.3c-1.07-1.1-2.86-1.66-5.35-1.66s-6.09.87-10.79 2.61a8.15 8.15 0 01-3.39 1 3.78 3.78 0 01-3.05-1.35 5.31 5.31 0 01-1.21-3.56 4.86 4.86 0 01.79-2.87 7.16 7.16 0 012.52-2.09 28.32 28.32 0 017.44-2.61 40.43 40.43 0 018.65-1q9.44.04 13.96 4.61zM282 71a9.46 9.46 0 002.35-6.66v-1.48h-1.48q-7 0-9.87 1.13a4.1 4.1 0 00-2.83 4.09 5.21 5.21 0 001.61 4 5.66 5.66 0 004 1.52A8 8 0 00282 71zM338.39 40.85a18 18 0 016.65 7.7 26.58 26.58 0 012.39 11.61A27.19 27.19 0 01345 71.87a18.7 18.7 0 01-6.7 7.91 17.38 17.38 0 01-9.78 2.83 17 17 0 01-8-1.87 13.31 13.31 0 01-5.48-5.18v.7a6 6 0 01-1.74 4.48 6.46 6.46 0 01-4.7 1.7 6.6 6.6 0 01-4.74-1.7 5.88 5.88 0 01-1.78-4.48V26.15A5.51 5.51 0 01304 21.8a7.14 7.14 0 014.91-1.66 6.68 6.68 0 014.62 1.57 5.37 5.37 0 011.73 4.18v19a13 13 0 015.44-5 17.17 17.17 0 017.88-1.79 18 18 0 019.81 2.75zm-6.53 28.49c1.68-2.17 2.53-5.23 2.53-9.18s-.85-6.85-2.53-8.91a9.7 9.7 0 00-14.27.08q-2.52 3.18-2.52 9t2.52 9.09a8.6 8.6 0 007.14 3.18 8.48 8.48 0 007.13-3.26zM352.7 80.87a5.66 5.66 0 01-1.87-4.61V26.32a5.66 5.66 0 011.87-4.61 7.13 7.13 0 014.74-1.57 7 7 0 014.65 1.57 5.66 5.66 0 011.91 4.61v49.94a5.66 5.66 0 01-1.87 4.61 7 7 0 01-4.65 1.57 7.13 7.13 0 01-4.78-1.57zM406.55 70.6a5.67 5.67 0 011.09 3.57 4.72 4.72 0 01-.87 2.74 7 7 0 01-2.44 2.09 31 31 0 01-6.87 2.57 29.19 29.19 0 01-7.22 1 25.91 25.91 0 01-12.14-2.7 18.84 18.84 0 01-8-7.7 23.79 23.79 0 01-2.78-11.79 24.3 24.3 0 012.69-11.57 19.85 19.85 0 017.53-7.81 21 21 0 0110.87-2.83 19.89 19.89 0 0110.22 2.57 17.5 17.5 0 016.83 7.26 23.89 23.89 0 012.44 11.09A4.19 4.19 0 01407 62a3.31 3.31 0 01-2.57 1h-24.37c.4 3.42 1.45 5.9 3.13 7.43s4.09 2.31 7.22 2.31a15.47 15.47 0 004.53-.61 46.09 46.09 0 004.43-1.65c.81-.35 1.6-.66 2.35-.92a6.22 6.22 0 012-.39 3.45 3.45 0 012.83 1.43zm-23.79-21a11.38 11.38 0 00-2.7 6.92h16.79q-.25-4.6-2.31-7a7.24 7.24 0 00-5.78-2.35 7.86 7.86 0 00-6 2.42z"></path></g></g></g></svg>