<svg viewBox="0.00 0.00 306.00 314.00" version="1.1" xmlns="http://www.w3.org/2000/svg">
<path d="M 45.86 0.00
  L 54.78 0.00
  C 74.84 1.53 93.08 7.54 111.47 15.83
  A 0.30 0.29 -54.6 0 1 111.55 16.31
  Q 105.43 22.23 103.29 30.51
  Q 103.14 31.11 102.57 30.87
  C 81.92 21.91 58.85 14.20 36.19 19.64
  A 1.24 1.23 86.9 0 0 35.26 20.68
  C 33.17 36.82 36.73 53.12 42.31 68.25
  C 51.03 91.88 64.16 114.04 79.11 134.39
  Q 79.50 134.93 79.94 134.43
  Q 111.69 98.09 150.19 68.43
  C 176.82 47.91 206.84 29.53 239.27 19.90
  C 253.02 15.82 269.16 13.54 282.99 18.24
  C 308.97 27.05 308.05 58.46 301.94 80.03
  C 297.08 97.18 289.53 113.41 280.81 128.91
  Q 280.55 129.37 280.20 128.98
  Q 275.18 123.57 268.27 121.00
  A 0.54 0.53 -64.6 0 1 268.00 120.23
  C 279.46 100.58 290.08 75.43 288.61 52.25
  A 0.81 0.80 -2.9 0 0 287.77 51.50
  C 263.29 52.43 238.71 63.63 218.02 76.05
  C 176.87 100.74 139.92 133.48 108.57 169.66
  A 0.50 0.48 45.1 0 0 108.58 170.31
  C 138.80 203.34 174.07 232.56 213.81 253.39
  C 234.20 264.08 259.01 273.65 282.45 271.81
  Q 282.95 271.77 283.12 271.31
  C 292.25 247.04 280.06 213.94 268.55 191.97
  Q 268.31 191.51 268.64 191.09
  L 279.74 177.13
  Q 280.15 176.62 280.47 177.19
  C 294.53 202.81 308.89 238.59 302.58 268.24
  Q 297.11 293.94 271.70 301.52
  C 251.12 307.66 226.47 301.77 206.99 294.26
  C 159.67 276.03 116.10 242.02 81.33 205.11
  Q 81.00 204.76 80.72 205.15
  C 64.80 227.34 50.62 252.21 43.62 278.77
  Q 41.51 286.75 40.91 295.44
  A 0.89 0.89 0.0 0 0 41.69 296.38
  C 59.25 298.49 75.50 293.00 91.19 286.61
  Q 91.75 286.38 91.96 286.95
  Q 94.45 293.91 99.70 299.09
  A 0.40 0.40 0.0 0 1 99.59 299.73
  C 80.94 308.67 54.15 317.33 33.74 312.25
  C 12.95 307.07 5.42 287.49 7.72 267.48
  Q 10.11 246.78 19.39 225.94
  Q 32.38 196.75 51.32 170.65
  Q 51.71 170.11 51.31 169.58
  C 26.63 137.36 2.97 95.82 0.00 54.65
  L 0.00 45.75
  C 2.90 17.20 17.31 2.85 45.86 0.00
  Z" fill="#0a083a"></path>
<circle r="16.07" cy="38.24" cx="133.03" fill="#0a083a"></circle>
<circle r="16.07" cy="149.91" cx="257.68" fill="#0a083a"></circle>
<circle r="16.07" cy="276.82" cx="121.02" fill="#0a083a"></circle>
</svg>
