<svg id="Layer_1" data-name="Layer 1" xmlns="http://www.w3.org/2000/svg" viewBox="0 0 500 239"><defs><style>.cls-1{fill:#0099cc;}</style></defs><title>Artboard 1</title><polygon class="cls-1" points="126.64 33.82 124.62 55.6 146.29 42.38 169.49 58.34 223.08 0.32 101.66 7.88 124.02 28.86 196.15 7.93 126.64 33.82"/><polygon class="cls-1" points="84.04 45.25 57.96 42.18 60.33 21.32 86.41 24.39 84.04 45.25"/><polygon class="cls-1" points="107.18 68.48 80.44 65.33 82.87 43.96 109.61 47.11 107.18 68.48"/><polygon class="cls-1" points="78.67 84.65 55.39 81.9 57.6 62.52 80.87 65.26 78.67 84.65"/><polygon class="cls-1" points="83 114.53 63.94 112.29 65.85 95.53 84.9 97.77 83 114.53"/><polygon class="cls-1" points="32.74 130.15 15.4 128.11 17.05 113.66 34.39 115.7 32.74 130.15"/><polygon class="cls-1" points="49.92 159.06 32.58 157.01 34.22 142.56 51.56 144.6 49.92 159.06"/><polygon class="cls-1" points="33.18 168.16 16.82 166.24 18.37 152.61 34.74 154.53 33.18 168.16"/><polygon class="cls-1" points="65.07 126.74 46.02 124.49 47.92 107.74 66.98 109.98 65.07 126.74"/><polygon class="cls-1" points="140.38 86.09 119.12 83.59 121.14 65.81 142.39 68.31 140.38 86.09"/><polygon class="cls-1" points="112.25 90.06 93.77 87.89 95.45 73.12 113.93 75.3 112.25 90.06"/><polygon class="cls-1" points="28.32 188.42 13.87 186.72 15.19 175.17 29.64 176.88 28.32 188.42"/><polygon class="cls-1" points="34.93 212.63 20.48 210.93 21.79 199.38 36.25 201.07 34.93 212.63"/><polygon class="cls-1" points="63.22 230.53 50.88 229.08 52.19 217.52 64.53 218.98 63.22 230.53"/><polygon class="cls-1" points="85.02 233.22 72.68 231.77 73.99 220.21 86.34 221.67 85.02 233.22"/><polygon class="cls-1" points="94.95 224.32 83.91 223.03 85.08 212.69 96.13 214 94.95 224.32"/><polygon class="cls-1" points="111.65 238.19 103.37 237.21 104.25 229.46 112.53 230.43 111.65 238.19"/><polygon class="cls-1" points="132.4 228.99 125.14 228.13 125.92 221.35 133.17 222.2 132.4 228.99"/><polygon class="cls-1" points="144.58 212.53 139.24 211.9 139.81 206.89 145.16 207.52 144.58 212.53"/><polygon class="cls-1" points="54.11 200.38 40.96 198.83 42.28 187.28 55.43 188.83 54.11 200.38"/><polygon class="cls-1" points="64.03 210.41 51.6 208.95 52.85 198.03 65.27 199.5 64.03 210.41"/><polygon class="cls-1" points="15.77 176.32 1.32 174.62 2.63 163.07 17.09 164.78 15.77 176.32"/><polygon class="cls-1" points="14.45 139.35 0 137.65 1.31 126.09 15.77 127.8 14.45 139.35"/><polygon class="cls-1" points="43.54 99.07 25.07 96.89 26.96 80.28 45.43 82.46 43.54 99.07"/><path class="cls-1" d="M169,109.77v21.68a17.72,17.72,0,0,0-6.87-5.62,20.35,20.35,0,0,0-8.68-1.94,16.88,16.88,0,0,0-13.16,5.56,19.6,19.6,0,0,0-5,13.64,18.72,18.72,0,0,0,5.11,13.51q5.11,5.34,13.34,5.33a19,19,0,0,0,8.41-2,20.2,20.2,0,0,0,6.87-5.39v21.59q-2.44.83-4.61,1.43t-4.25,1.06a31.84,31.84,0,0,1-3.3.55,32.75,32.75,0,0,1-3.48.18,36.56,36.56,0,0,1-13.7-2.63,38.89,38.89,0,0,1-11.89-7.5,32.18,32.18,0,0,1-8.27-11.83A38.47,38.47,0,0,1,116.82,143a37.63,37.63,0,0,1,2.57-13.72,34.94,34.94,0,0,1,7.46-11.69,37,37,0,0,1,11.48-8A34.94,34.94,0,0,1,152,106.36h.82a36.91,36.91,0,0,1,8.27.92,46.64,46.64,0,0,1,7.91,2.58Z"/><path class="cls-1" d="M225.83,177.5H209.37v-5.24h-.18a12.32,12.32,0,0,1-5.43,4.92,19,19,0,0,1-7.14,1.79,3,3,0,0,1-.72.09h-.72a21.38,21.38,0,0,1-16.86-7.5,27.09,27.09,0,0,1-.09-35.23,21.11,21.11,0,0,1,16.77-7.5h.9a4.41,4.41,0,0,1,.91.09,20.83,20.83,0,0,1,6.91,1.79,15.27,15.27,0,0,1,5.65,4.28v-4.69h16.46Zm-34.27-30.94a11,11,0,0,0-2.8,7.5,10.71,10.71,0,0,0,2.8,7.54,10.06,10.06,0,0,0,7.78,3q5.06,0,7.82-3a10.87,10.87,0,0,0,2.76-7.57,11.13,11.13,0,0,0-2.76-7.53q-2.75-3.19-7.82-3.19A10.09,10.09,0,0,0,191.56,146.56Z"/><path class="cls-1" d="M265.71,131.39v14.17a23.12,23.12,0,0,0-4-2.25,11,11,0,0,0-4.52-1,10.87,10.87,0,0,0-8,3.32,11.19,11.19,0,0,0-3.3,8.21,11.33,11.33,0,0,0,3.26,8.35,11.21,11.21,0,0,0,8.31,3.28c.31,0,.62,0,1,0s.65-.08.95-.14a13,13,0,0,0,3.39-1.06,10.9,10.9,0,0,0,2.94-2v14a23.38,23.38,0,0,1-5.65,2,27.7,27.7,0,0,1-5.92.64A25.19,25.19,0,0,1,236.36,172a23.07,23.07,0,0,1-7.46-17.64q0-11.41,7.51-18.55a25.75,25.75,0,0,1,18.44-7.14,23.37,23.37,0,0,1,5.65.69,21,21,0,0,1,5.2,2.07Z"/><path class="cls-1" d="M287.85,107.47v28.84H288a19.41,19.41,0,0,1,6.45-5.61,18,18,0,0,1,8.35-1.84q8.85,0,13.13,5.43t4.29,14.44v28.79H303.79V152.86a20.11,20.11,0,0,0-1.31-7.32q-1.31-3.36-6.08-3.36t-6.57,3.36a15.34,15.34,0,0,0-2,7.32v24.66H271.39V107.47Z"/><path class="cls-1" d="M374.29,155v1.75H339.66q0,5.16,2.62,7.86t7.69,2.71a9.72,9.72,0,0,0,4.57-1,8.31,8.31,0,0,0,3.3-3.31h15.83q-2,8.42-8.82,12.26a29.68,29.68,0,0,1-14.78,3.84q-11.49,0-19.17-6.39T323.2,154q0-11.77,7.19-18.49t18.49-6.72q12.12,0,18.77,7.09t6.65,19.14ZM359,147.06a8.51,8.51,0,0,0-3.3-5.35,9.7,9.7,0,0,0-6-2,10.88,10.88,0,0,0-6.33,1.87,8.32,8.32,0,0,0-3.44,5.51Z"/><path class="cls-1" d="M395.33,123.41V135h19.44v15.28H395.33v27.21H377.61V108.06h39.16v15.36Z"/><path class="cls-1" d="M438.22,177.54H421.77V107.47h16.46Z"/><path class="cls-1" d="M437.78,130.3h19l12.39,24.2,12.11-24.2H500l-37.17,70.76H444.39l15.83-30Z"/></svg>