<?xml version="1.0" encoding="UTF-8" standalone="no"?>
<!DOCTYPE svg PUBLIC "-//W3C//DTD SVG 1.1//EN" "http://www.w3.org/Graphics/SVG/1.1/DTD/svg11.dtd">
<svg xmlns="http://www.w3.org/2000/svg" version="1.1" viewBox="0.00 0.00 32.00 32.00">
<g stroke-width="2.00" fill="none" stroke-linecap="butt">
<path stroke="#af23d0" vector-effect="non-scaling-stroke" d="
  M 23.42 3.02
  L 21.20 6.66
  A 2.15 2.13 45.2 0 0 21.20 8.89
  Q 22.70 11.34 24.31 14.24
  C 25.71 16.74 28.39 16.09 30.90 16.08"
/>
<path stroke="#6765ea" vector-effect="non-scaling-stroke" d="
  M 11.22 24.28
  L 8.40 28.82"
/>
</g>
<path fill="#f045b1" d="
  M 23.42 3.02
  L 21.20 6.66
  A 2.15 2.13 45.2 0 0 21.20 8.89
  Q 22.70 11.34 24.31 14.24
  C 25.71 16.74 28.39 16.09 30.90 16.08
  L 23.61 28.74
  A 0.17 0.17 0.0 0 1 23.32 28.73
  L 20.94 24.46
  Q 20.78 24.18 20.94 23.90
  L 25.13 16.66
  A 0.44 0.44 0.0 0 0 24.75 16.00
  L 16.53 15.99
  A 0.90 0.89 74.7 0 1 15.76 15.55
  L 8.87 3.64
  Q 8.53 3.05 9.21 3.05
  L 23.42 3.02
  Z"
/>
<path fill="#6d00ef" d="
  M 23.42 3.02
  L 30.90 16.08
  C 28.39 16.09 25.71 16.74 24.31 14.24
  Q 22.70 11.34 21.20 8.89
  A 2.15 2.13 45.2 0 1 21.20 6.66
  L 23.42 3.02
  Z"
/>
<path fill="#239dd5" d="
  M 11.22 24.28
  L 8.40 28.82
  L 1.30 16.42
  A 0.90 0.90 0.0 0 1 1.30 15.52
  L 7.30 5.06
  A 0.21 0.21 0.0 0 1 7.66 5.06
  L 10.14 9.25
  A 0.38 0.36 -46.2 0 1 10.14 9.64
  L 6.81 15.52
  Q 6.52 16.03 6.81 16.54
  L 11.22 24.28
  Z"
/>
<path fill="#aa2cff" d="
  M 11.22 24.28
  L 18.49 24.24
  Q 18.74 24.24 18.86 24.45
  L 21.41 28.70
  A 0.16 0.16 0.0 0 1 21.27 28.94
  L 8.40 28.82
  L 11.22 24.28
  Z"
/>
</svg>
