<svg xmlns="http://www.w3.org/2000/svg" xmlns:xlink="http://www.w3.org/1999/xlink" viewBox="0 0 115 24"><g transform="translate(0 0.125)" id="ss11646584443_1"><path d="M 0 23.75 L 0 0 L 24 0 L 24 23.75 Z" fill="transparent"></path><path d="M 11.25 19.5 C 9.975 19.5 9 18.525 9 17.25 L 9 13.5 C 9 12.225 9.975 11.25 11.25 11.25 L 17.25 11.25 C 18.525 11.25 19.5 12.225 19.5 13.5 L 19.5 17.25 C 19.5 18.525 18.525 19.5 17.25 19.5 Z" fill="rgb(59,130,246)"></path><path d="M 17.25 12 C 18.075 12 18.75 12.675 18.75 13.5 L 18.75 17.25 C 18.75 18.075 18.075 18.75 17.25 18.75 L 11.25 18.75 C 10.425 18.75 9.75 18.075 9.75 17.25 L 9.75 13.5 C 9.75 12.675 10.425 12 11.25 12 Z M 17.25 10.5 L 11.25 10.5 C 9.6 10.5 8.25 11.85 8.25 13.5 L 8.25 17.25 C 8.25 18.9 9.6 20.25 11.25 20.25 L 17.25 20.25 C 18.9 20.25 20.25 18.9 20.25 17.25 L 20.25 13.5 C 20.25 11.85 18.9 10.5 17.25 10.5 Z" fill="rgb(255,255,255)"></path><path d="M 3 21 C 1.725 21 0.75 20.025 0.75 18.75 L 0.75 13.5 C 0.75 12.225 1.725 11.25 3 11.25 L 10.5 11.25 C 11.775 11.25 12.75 12.225 12.75 13.5 L 12.75 18.75 C 12.75 20.025 11.775 21 10.5 21 Z" fill="rgb(30,58,138)"></path><path d="M 10.5 12 C 11.325 12 12 12.675 12 13.5 L 12 18.75 C 12 19.575 11.325 20.25 10.5 20.25 L 3 20.25 C 2.175 20.25 1.5 19.575 1.5 18.75 L 1.5 13.5 C 1.5 12.675 2.175 12 3 12 Z M 10.5 10.5 L 3 10.5 C 1.35 10.5 0 11.85 0 13.5 L 0 18.75 C 0 20.4 1.35 21.75 3 21.75 L 10.5 21.75 C 12.15 21.75 13.5 20.4 13.5 18.75 L 13.5 13.5 C 13.5 11.85 12.15 10.5 10.5 10.5 Z" fill="rgb(255,255,255)"></path><path d="M 9 14.25 C 7.725 14.25 6.75 13.275 6.75 12 L 6.75 3 C 6.75 1.725 7.725 0.75 9 0.75 L 21 0.75 C 22.275 0.75 23.25 1.725 23.25 3 L 23.25 12 C 23.25 13.275 22.275 14.25 21 14.25 Z" fill="rgb(30,58,138)"></path><path d="M 21 1.5 C 21.825 1.5 22.5 2.175 22.5 3 L 22.5 12 C 22.5 12.825 21.825 13.5 21 13.5 L 9 13.5 C 8.175 13.5 7.5 12.825 7.5 12 L 7.5 3 C 7.5 2.175 8.175 1.5 9 1.5 Z M 21 0 L 9 0 C 7.35 0 6 1.35 6 3 L 6 12 C 6 13.65 7.35 15 9 15 L 21 15 C 22.65 15 24 13.65 24 12 L 24 3 C 24 1.35 22.65 0 21 0 Z" fill="rgb(255,255,255)"></path></g><path d="M 107.841 17.14 L 107.841 7.14 L 110.921 7.14 L 110.921 17.14 Z" fill="rgb(23,37,84)"></path><path d="M 108.101 5.08 C 108.447 5.413 108.867 5.58 109.361 5.58 C 109.841 5.58 110.247 5.413 110.581 5.08 C 110.927 4.733 111.101 4.313 111.101 3.82 C 111.101 3.327 110.927 2.913 110.581 2.58 C 110.247 2.247 109.841 2.08 109.361 2.08 C 108.867 2.08 108.447 2.247 108.101 2.58 C 107.767 2.913 107.601 3.327 107.601 3.82 C 107.601 4.313 107.767 4.733 108.101 5.08 Z" fill="rgb(59,130,246)"></path><path d="M 99.576 7.14 L 106.457 7.14 L 106.457 9.7 L 99.576 9.7 Z M 104.557 17.14 L 101.477 17.14 L 101.477 4.04 L 104.557 4.04 Z" fill="rgb(23,37,84)"></path><path d="M 92.345 17.4 C 91.292 17.4 90.452 17.113 89.825 16.54 C 89.212 15.953 88.905 15.173 88.905 14.2 C 88.905 13.28 89.219 12.547 89.845 12 C 90.485 11.453 91.405 11.133 92.605 11.04 L 95.405 10.82 L 95.405 10.66 C 95.405 10.327 95.338 10.053 95.205 9.84 C 95.072 9.613 94.879 9.447 94.625 9.34 C 94.385 9.22 94.079 9.16 93.705 9.16 C 93.052 9.16 92.552 9.28 92.205 9.52 C 91.872 9.76 91.705 10.107 91.705 10.56 L 89.145 10.56 C 89.145 9.8 89.338 9.14 89.725 8.58 C 90.112 8.02 90.659 7.587 91.365 7.28 C 92.085 6.973 92.918 6.82 93.865 6.82 C 94.838 6.82 95.659 6.993 96.325 7.34 C 97.005 7.687 97.519 8.193 97.865 8.86 C 98.225 9.527 98.405 10.34 98.405 11.3 L 98.405 17.14 L 95.685 17.14 L 95.485 15.82 C 95.325 16.273 94.945 16.653 94.345 16.96 C 93.758 17.253 93.092 17.4 92.345 17.4 Z M 93.425 15.12 C 94.012 15.12 94.492 14.98 94.865 14.7 C 95.239 14.407 95.425 13.973 95.425 13.4 L 95.425 12.86 L 93.865 13 C 93.199 13.053 92.725 13.167 92.445 13.34 C 92.179 13.5 92.045 13.74 92.045 14.06 C 92.045 14.42 92.159 14.687 92.385 14.86 C 92.612 15.033 92.959 15.12 93.425 15.12 Z" fill="rgb(23,37,84)"></path><path d="M 77.398 12.1 C 77.398 11.073 77.618 10.167 78.058 9.38 C 78.498 8.58 79.098 7.953 79.858 7.5 C 80.632 7.047 81.518 6.82 82.518 6.82 C 83.998 6.82 85.198 7.2 86.118 7.96 C 87.038 8.72 87.545 9.753 87.638 11.06 L 84.538 11.06 C 84.432 10.553 84.218 10.18 83.898 9.94 C 83.592 9.7 83.172 9.58 82.638 9.58 C 82.212 9.58 81.832 9.687 81.498 9.9 C 81.178 10.1 80.932 10.387 80.758 10.76 C 80.585 11.133 80.498 11.58 80.498 12.1 C 80.498 12.633 80.578 13.093 80.738 13.48 C 80.912 13.853 81.152 14.14 81.458 14.34 C 81.778 14.54 82.158 14.64 82.598 14.64 C 83.145 14.64 83.578 14.52 83.898 14.28 C 84.232 14.027 84.445 13.653 84.538 13.16 L 87.638 13.16 C 87.572 14 87.312 14.74 86.858 15.38 C 86.418 16.007 85.832 16.5 85.098 16.86 C 84.365 17.22 83.532 17.4 82.598 17.4 C 81.545 17.4 80.625 17.18 79.838 16.74 C 79.065 16.3 78.465 15.687 78.038 14.9 C 77.612 14.1 77.398 13.167 77.398 12.1 Z" fill="rgb(23,37,84)"></path><path d="M 72.548 17.14 L 72.548 7.14 L 75.628 7.14 L 75.628 17.14 Z" fill="rgb(23,37,84)"></path><path d="M 70.237 17.14 L 67.157 17.14 L 67.157 2.06 L 70.237 2.06 Z" fill="rgb(23,37,84)"></path><path d="M 54.364 21.94 L 54.364 7.14 L 57.264 7.14 L 57.424 8.36 C 57.704 7.893 58.138 7.52 58.724 7.24 C 59.311 6.96 59.958 6.82 60.664 6.82 C 61.597 6.82 62.417 7.027 63.124 7.44 C 63.831 7.853 64.384 8.447 64.784 9.22 C 65.184 9.98 65.384 10.9 65.384 11.98 C 65.384 13.033 65.198 13.973 64.824 14.8 C 64.464 15.613 63.931 16.253 63.224 16.72 C 62.531 17.187 61.684 17.42 60.684 17.42 C 59.991 17.42 59.351 17.3 58.764 17.06 C 58.178 16.82 57.737 16.513 57.444 16.14 L 57.444 21.94 Z M 57.464 12.14 C 57.464 12.633 57.564 13.073 57.764 13.46 C 57.977 13.833 58.264 14.127 58.624 14.34 C 58.997 14.54 59.424 14.64 59.904 14.64 C 60.397 14.64 60.817 14.533 61.164 14.32 C 61.524 14.107 61.797 13.813 61.984 13.44 C 62.184 13.067 62.284 12.633 62.284 12.14 C 62.284 11.647 62.184 11.213 61.984 10.84 C 61.797 10.467 61.524 10.173 61.164 9.96 C 60.817 9.747 60.397 9.64 59.904 9.64 C 59.424 9.64 58.997 9.747 58.624 9.96 C 58.264 10.16 57.977 10.447 57.764 10.82 C 57.564 11.193 57.464 11.633 57.464 12.14 Z" fill="rgb(23,37,84)"></path><path d="M 48.973 7.14 L 52.053 7.14 L 52.053 17.14 L 49.153 17.14 L 48.953 16.02 C 48.646 16.433 48.206 16.767 47.633 17.02 C 47.073 17.273 46.493 17.4 45.893 17.4 C 44.76 17.4 43.86 17.047 43.193 16.34 C 42.54 15.62 42.213 14.647 42.213 13.42 L 42.213 7.14 L 45.293 7.14 L 45.293 12.3 C 45.293 13.113 45.44 13.713 45.733 14.1 C 46.026 14.473 46.486 14.66 47.113 14.66 C 47.78 14.66 48.253 14.48 48.533 14.12 C 48.826 13.747 48.973 13.153 48.973 12.34 Z" fill="rgb(23,37,84)"></path><path d="M 33.74 17.4 C 32.78 17.4 31.947 17.187 31.24 16.76 C 30.533 16.333 29.98 15.733 29.58 14.96 C 29.193 14.173 29 13.253 29 12.2 C 29 11.133 29.2 10.2 29.6 9.4 C 30 8.587 30.567 7.953 31.3 7.5 C 32.047 7.047 32.927 6.82 33.94 6.82 C 34.567 6.82 35.147 6.933 35.68 7.16 C 36.227 7.387 36.647 7.687 36.94 8.06 L 36.94 2.06 L 40.02 2.06 L 40.02 17.14 L 37.12 17.14 L 36.96 15.86 C 36.693 16.313 36.267 16.687 35.68 16.98 C 35.107 17.26 34.46 17.4 33.74 17.4 Z M 34.48 14.58 C 34.96 14.58 35.38 14.48 35.74 14.28 C 36.113 14.067 36.4 13.773 36.6 13.4 C 36.813 13.013 36.92 12.573 36.92 12.08 C 36.92 11.573 36.813 11.133 36.6 10.76 C 36.4 10.387 36.113 10.1 35.74 9.9 C 35.38 9.687 34.96 9.58 34.48 9.58 C 34 9.58 33.58 9.687 33.22 9.9 C 32.86 10.113 32.58 10.407 32.38 10.78 C 32.193 11.153 32.1 11.587 32.1 12.08 C 32.1 12.573 32.193 13.007 32.38 13.38 C 32.58 13.753 32.86 14.047 33.22 14.26 C 33.58 14.473 34 14.58 34.48 14.58 Z" fill="rgb(23,37,84)"></path><path d="M 72.808 5.08 C 73.154 5.413 73.575 5.58 74.068 5.58 C 74.548 5.58 74.954 5.413 75.288 5.08 C 75.635 4.733 75.808 4.313 75.808 3.82 C 75.808 3.327 75.635 2.913 75.288 2.58 C 74.954 2.247 74.548 2.08 74.068 2.08 C 73.575 2.08 73.154 2.247 72.808 2.58 C 72.475 2.913 72.308 3.327 72.308 3.82 C 72.308 4.313 72.475 4.733 72.808 5.08 Z" fill="rgb(59,130,246)"></path></svg>