<?xml version="1.0" standalone="no"?><!DOCTYPE svg PUBLIC "-//W3C//DTD SVG 1.1//EN" "http://www.w3.org/Graphics/SVG/1.1/DTD/svg11.dtd"><svg t="1746675707944" class="icon" viewBox="0 0 1024 1024" version="1.1" xmlns="http://www.w3.org/2000/svg" p-id="7618" xmlns:xlink="http://www.w3.org/1999/xlink" width="200" height="200"><path d="M527.936 91.616v188.448l-122.88-122.848-125.184 70.4 54.848 169.312-176.512-100.16L64 350.4l280.256 153.824 88.256-50.08-42.944-195.584 140.736 140.736 100.16-57.28V32zM898.72 711.424l-163.2-94.208 167.84-44.96 1.664-143.648-174.08-37.12 175.008-102.784 0.64-108.448-273.376 165.792-0.768 101.472 190.848 60.608-192.224 51.52-0.512 115.392 268.544 155.04zM181.216 719.616l163.2-94.208-44.96 167.808 123.52 73.28 119.264-132.192 1.504 202.944L637.312 992l-6.88-319.648-87.52-51.36-147.904 134.976 51.52-192.256-99.68-58.144-268.544 155.04z" fill="#00993E" p-id="7619"></path></svg>