<?xml version="1.0" standalone="no"?><!DOCTYPE svg PUBLIC "-//W3C//DTD SVG 1.1//EN" "http://www.w3.org/Graphics/SVG/1.1/DTD/svg11.dtd"><svg t="1746673144213" class="icon" viewBox="0 0 1024 1024" version="1.1" xmlns="http://www.w3.org/2000/svg" p-id="5352" xmlns:xlink="http://www.w3.org/1999/xlink" width="200" height="200"><path d="M512 512m-512 0a512 512 0 1 0 1024 0 512 512 0 1 0-1024 0Z" fill="#007ED3" p-id="5353"></path><path d="M256.624 595.36c0-51.648-0.16-162.08 0.064-213.744 0.112-25.392 5.44-49.552 21.2-70.192 19.328-25.28 46.544-36.672 76.88-41.888 11.456-1.984 23.008-3.36 34.752-3.184 12.416 0.16 12.48 0.064 12.48 12.128v191.52c0 10.672 0 10.72 10.368 10.72 42.912 0 85.776 0.16 128.704-0.16 7.76-0.064 10.544 1.856 10.544 10.144v123.936c0.048 8.272-2.784 10.256-10.56 10.208-41.312-0.352-82.592-0.16-123.92-0.112-10.32 0-10.32 0.048-10.32 10.656 0 43.136 0 77.84-0.064 121.04 0 10.432-0.16 10.608-10.72 10.608-39.968 0.048-80 0.048-119.968 0-14.624 0-19.504-4.928-19.504-19.616 0-53.584 0.064-152.064 0.064-152.064z" fill="#FFFFFF" p-id="5354"></path><path d="M618.56 422.88c0-11.264-0.048-11.328-11.616-11.328-41.552-0.064-83.168-0.064-124.72-0.112-11.68 0-11.632-0.064-11.632-11.28 0-41.392-0.048-82.88 0-123.152 0-9.808 0.464-10.256 10.384-10.256 88.208-0.064 176.368-0.064 264.592-0.064 14.864 0 19.104 3.968 18.992 18.832-0.272 37.6 0 300.48 0 368.96 0 31.824-9.12 60.224-34.688 81.152-22.912 18.768-50.176 26.704-79.04 30.096-7.36 0.848-14.8 0.848-22.176 1.536-7.584 0.672-10.144-2.496-10.08-10.032 0.272-35.552 0.048-287.456 0-334.336z" fill="#FFFFFF" p-id="5355"></path></svg>