<?xml version="1.0" standalone="no"?><!DOCTYPE svg PUBLIC "-//W3C//DTD SVG 1.1//EN" "http://www.w3.org/Graphics/SVG/1.1/DTD/svg11.dtd"><svg t="1746675794834" class="icon" viewBox="0 0 1024 1024" version="1.1" xmlns="http://www.w3.org/2000/svg" p-id="8668" xmlns:xlink="http://www.w3.org/1999/xlink" width="200" height="200"><path d="M191.3088 427.8016c-18.176 15.4368-53.7088 60.5696-50.2784 117.7216 3.4304 57.1392 29.888 115.7632 42.688 137.9328 18.7008 40.9216 71.808 116.6848 134.5664 92.288 58.5472-22.784 76.0704-33.6128 79.6672-35.84l0.2176-0.128a12.16 12.16 0 0 1 0.3456-0.2048c1.9968 33.3312 8.3456 91.2512 14.7456 102.336 5.5168 9.5616 20.416 20.352 35.5328 6.272 11.9808-11.1616 10.304-26.2784 9.5744-32.896-0.0896-0.832-0.1664-1.536-0.2048-2.0736l44.5952 54.1696c3.2512 3.9424 7.0144 7.5136 11.8784 9.088 18.3168 5.9648 60.032 7.1168 106.4448-24.2944 38.8992 36.672 66.112 50.5216 80.384 49.664 3.2-11.9424-0.5888-27.6224-4.6592-44.4032-1.8816-7.7952-3.84-15.8208-5.1584-23.8208-2.432-14.5792 0.7424-15.872 4.1472-17.2672l0.5376-0.2176c15.8464-6.6944 44.3392-25.6 52.224-37.5424 9.9712-15.104 13.184-66.752-12.416-111.0912-3.8656-6.7072 1.472-3.4176 10.0864 1.8944 12.736 7.8592 32.6784 20.1472 40.6912 11.1104 9.856-11.1232-1.1008-29.6704-7.9104-41.216l-1.7152-2.9312-49.4848-60.1088c48.32-22.9632 144.448-77.4784 142.3872-111.7696 4.9408-32.4096-19.4304-84.8512-32.2304-107.0208l-57.6-99.7632c-8.5248-14.784-37.4912-41.9072-85.0816-32.1792-59.4816 12.1856-237.9264 48.6912-396.3264 132.7488-42.4576 18.6112-89.4592 54.1184-107.648 69.5424z" fill="#FFB400" p-id="8669"></path><path d="M396.8384 404.0704l18.7904-9.344c4.0704 0.9472 7.7824 1.9456 11.072 2.9312l6.4768-11.6608 9.152-16.512 0.0768-0.1024c14.5664-23.8848 59.9424-70.4384 125.6064-64.704 65.0624 5.6832 96.4224 50.1248 104.1792 72.7296 7.3728 17.7152 13.2224 61.8496-17.8432 104.5504-22.3744 30.7456-57.8944 46.4384-93.824 54.0928-34.6368 7.3856-70.4768 7.4752-97.3056 5.9136l-24.8832 28.0704c-10.496 11.3024-29.952 26.3424-54.784 35.5328-24.9216 9.2288-55.5264 12.6336-87.8336 0.0128-32.896-12.8512-48.832-38.2976-55.296-64.3456-6.4-25.7792-3.6352-52.4416 0.8704-69.2608 3.0976-11.52 11.904-25.9456 24.448-39.3984 12.672-13.5424 29.6192-26.5856 49.5872-35.008 20.352-8.576 44.1216-9.9072 65.152-8.32 12.9408 0.9984 25.1008 3.1104 35.1488 5.4656l-18.7904 9.344z m56.5632-28.1344l-20.6464 37.184-5.0688-1.7152a194.432 194.432 0 0 0-30.848-7.3344l-143.1808 71.2192c-4.0832 15.232-6.5664 39.6416-0.8064 62.8736 5.7088 22.976 19.3536 44.4928 47.5264 55.5008 28.7744 11.2384 56.0768 8.2944 78.7456-0.1024 22.7328-8.4096 40.512-22.2336 49.792-32.192l28.8768-32.5632 3.1232 0.192c26.5856 1.7152 62.5664 1.8688 96.9472-5.4656 34.432-7.3344 66.3936-21.9776 86.144-49.1136 28.1344-38.6816 22.2592-78.1312 16.2944-92.2496l-0.0896-0.2176-0.0768-0.2176c-6.3232-18.688-33.9712-59.136-93.2352-64.3072-58.752-5.12-100.16 36.736-113.4976 58.5088z m-56.5632 28.1344l-143.1808 71.2192c2.3552-8.768 9.7024-21.4016 21.44-33.9712 11.648-12.4544 27.136-24.3456 45.2096-31.9616 17.6896-7.4624 39.1552-8.8576 59.2-7.3344 6.016 0.4608 11.84 1.1776 17.3312 2.048zM415.6288 394.7136z" fill="#000000" p-id="8670"></path><path d="M429.76 405.3376c-21.4784-7.3088-73.9072-17.92-111.9488-1.8816-38.016 16.0512-64.896 49.8816-70.336 70.1696-8.576 32.064-10.496 102.144 50.5728 125.9904 61.0688 23.8592 115.84-12.6848 135.5904-33.9456l26.8544-30.2848c53.7344 3.4688 146.56 0.6912 188.672-57.2032 29.6832-40.768 23.7184-82.6624 17.024-98.5088-6.9632-20.608-36.48-63.1808-98.7264-68.6208-62.2592-5.44-105.6768 38.8352-119.5904 61.6576l-18.112 32.64z" fill="#FFFFFF" p-id="8671"></path><path d="M429.76 405.3376c-21.4784-7.3088-73.9072-17.92-111.9488-1.8816-38.016 16.0512-64.896 49.8816-70.336 70.1696-8.576 32.064-10.496 102.144 50.5728 125.9904 61.0688 23.8592 115.84-12.6848 135.5904-33.9456l26.8544-30.2848c53.7344 3.4688 146.56 0.6912 188.672-57.2032 29.6832-40.768 23.7184-82.6624 17.024-98.5088-6.9632-20.608-36.48-63.1808-98.7264-68.6208-62.2592-5.44-105.6768 38.8352-119.5904 61.6576l-18.112 32.64z" fill="#FFFFFF" p-id="8672"></path><path d="M586.432 432a38.4 38.4 0 1 1-66.5088 38.4 38.4 38.4 0 0 1 66.5088-38.4zM428.672 478.7328a38.4 38.4 0 1 1-66.5088 38.4 38.4 38.4 0 0 1 66.5088-38.4zM408.704 144.6784a34.7392 34.7392 0 0 1 39.6032-29.0688l28.3136 4.352a34.7392 34.7392 0 1 1-10.5344 68.672l-6.0672-0.9344L448 294.4l-14.272 4.3136 13.6064-112.96-9.5616-1.472a34.7392 34.7392 0 0 1-29.0688-39.6032zM198.6944 314.2912a29.3376 29.3376 0 0 1 0-41.4848l18.2144-18.2144a29.3376 29.3376 0 1 1 41.4848 41.472l-2.624 2.6496L320 345.6l-12.8 6.4-60.6208-44.096-6.4 6.4a29.3376 29.3376 0 0 1-41.4848 0zM441.2928 632.3456c4.4544 4.3264 10.5856 10.2656 19.0464 13.376 10.9184 4.0192 25.28 3.3664 45.2352-8.1664 11.52-6.6432 24.832-18.8928 36.736-31.7056 11.9424-12.8512 22.7072-26.5344 29.1328-36.2624l-5.3376-3.5328c-6.1952 9.3824-16.7424 22.784-28.4928 35.4432-11.8016 12.6976-24.576 24.3712-35.2384 30.528-18.8416 10.88-31.1936 10.8672-39.8208 7.68-7.04-2.5728-11.904-7.2704-16.3328-11.52a122.3936 122.3936 0 0 0-3.6608-3.456l-4.2496 4.8c0.896 0.7936 1.8944 1.7536 2.9824 2.816zM477.312 748.6464a11.52 11.52 0 1 0 4.6208 22.5792c31.4496-6.4384 71.2064-24.192 108.288-43.9168 37.2992-19.8656 72.9344-42.304 96.4352-58.88a11.52 11.52 0 0 0-13.2864-18.816c-22.7072 16.0128-57.5232 37.952-93.9904 57.344-36.6976 19.5456-74.0224 35.9552-102.0672 41.6896zM493.952 807.04a11.52 11.52 0 0 1 8.96-13.5936c28.1216-5.76 62.7456-20.6208 96.5632-38.5024a848.3584 848.3584 0 0 0 88.4096-54.144 11.52 11.52 0 0 1 13.2864 18.8288 871.3216 871.3216 0 0 1-90.9312 55.68c-34.4192 18.2016-71.3472 34.304-102.7072 40.704a11.52 11.52 0 0 1-13.5936-8.96zM531.2896 828.8a10.88 10.88 0 1 0 4.3648 21.3248c61.8496-12.6592 135.936-57.1776 182.3104-89.8816a10.88 10.88 0 1 0-12.544-17.792c-46.0544 32.4864-117.0048 74.6624-174.1312 86.3616z" fill="#000000" p-id="8673"></path><path d="M398.5024 739.5712l1.9456 16.1536c94.3616-49.536 282.4064-155.136 288.2048-166.4-5.568 3.2256-27.4304 14.2208-57.8048 29.504-63.8848 32.128-165.4528 83.2384-232.3456 120.7424z" fill="#E5A200" p-id="8674"></path></svg>