<svg width="203" height="48" viewBox="0 0 203 48" fill="none" xmlns="http://www.w3.org/2000/svg"><g clip-path="url(#clip0_3323_7376)"><path d="M56.8582 24.016C56.8582 14.1148 48.8311 6.08765 38.9298 6.08765C29.0286 6.08765 21 14.1148 21 24.016C21 33.9173 29.0271 41.9458 38.9298 41.9458C39.0731 41.9458 39.2149 41.9444 39.3582 41.94C39.3815 41.9429 39.4035 41.9458 39.4283 41.9458H51.1876C54.3204 41.9458 56.8597 39.4066 56.8597 36.2738V24.5145C56.8597 24.4911 56.8567 24.4677 56.8538 24.4443C56.8567 24.3025 56.8597 24.1593 56.8597 24.016H56.8582ZM53.4477 29.5185C52.7796 32.3428 50.6555 31.4087 50.6555 31.4087C49.2112 30.8137 49.6146 28.9221 49.6146 28.9221C49.8047 27.0757 49.2696 25.3975 49.2696 25.3975C47.0344 16.4976 39.0848 17.2505 39.0848 17.2505C29.9788 17.692 30.2551 25.7629 30.2551 25.7629C30.3472 32.9363 37.3452 32.9203 37.3452 32.9203C40.7148 32.853 42.1021 30.6354 42.1021 30.6354C44.368 27.754 42.6547 24.8595 42.6547 24.8595C41.646 22.8275 39.6403 22.4664 38.6959 22.4123C38.5 22.3816 38.2998 22.3656 38.0951 22.3656C35.9593 22.3656 34.2285 24.0964 34.2285 26.2322C34.2285 28.368 35.9593 30.0989 38.0951 30.0989C38.7603 30.0989 39.3859 29.9307 39.9327 29.6354C40.1739 29.5229 40.3274 29.4074 40.4166 29.3241C40.4209 29.3211 40.4239 29.3182 40.4282 29.3153C39.1213 30.745 37.0528 30.5564 37.0528 30.5564C32.2169 30.1339 32.6891 25.3361 32.6891 25.3361C33.6613 18.0677 40.9881 19.781 40.9881 19.781C44.8767 20.4461 46.4614 24.2455 46.4614 24.2455C49.1264 32.1732 41.972 36.708 41.972 36.708C32.8967 41.095 27.1881 33.9406 27.1881 33.9406C19.9504 25.3405 25.447 16.2009 25.447 16.2009C33.5487 3.88169 45.9395 10.1443 45.9395 10.1443C57.5394 16.4538 53.4477 29.5185 53.4477 29.5185ZM41.0525 28.7232C41.0525 28.7232 41.0598 28.7159 41.0627 28.7115C41.0598 28.7159 41.0554 28.7188 41.0525 28.7232ZM41.5276 28.0128C41.5378 27.9938 41.5466 27.9762 41.5553 27.9572C41.5466 27.9762 41.5363 27.9938 41.5276 28.0128ZM41.7132 27.5961C41.7162 27.5874 41.7191 27.5801 41.7235 27.5713C41.7205 27.5801 41.7176 27.5874 41.7132 27.5961ZM41.8916 26.9617C41.896 26.9354 41.9018 26.9091 41.9062 26.8827C41.9018 26.9091 41.8974 26.9354 41.8916 26.9617ZM41.9267 26.7468C41.9296 26.7205 41.934 26.6942 41.9369 26.6678C41.934 26.6942 41.931 26.7205 41.9267 26.7468ZM41.9486 26.5217C41.9501 26.4983 41.953 26.4763 41.9544 26.453C41.9544 26.4763 41.9515 26.4997 41.9486 26.5217ZM41.9515 25.9808C41.9486 25.9384 41.9457 25.8974 41.9413 25.855C41.9457 25.896 41.9486 25.9384 41.9515 25.9808ZM41.934 25.782C41.9296 25.7439 41.9252 25.7074 41.9194 25.6694C41.9252 25.7059 41.9296 25.7439 41.934 25.782ZM41.9077 25.5934C41.9018 25.5583 41.896 25.5217 41.8887 25.4867C41.896 25.5217 41.9018 25.5568 41.9077 25.5934ZM41.8287 25.2308C41.8199 25.1972 41.8097 25.1636 41.8009 25.13C41.8112 25.1636 41.8199 25.1972 41.8287 25.2308ZM41.7776 25.0554C41.7673 25.0218 41.7556 24.9882 41.7439 24.956C41.7556 24.9896 41.7673 25.0218 41.7776 25.0554ZM41.7191 24.8844C41.7059 24.8493 41.6928 24.8157 41.6781 24.782C41.6913 24.8157 41.7059 24.8507 41.7191 24.8844ZM41.6518 24.7163C41.6358 24.6768 41.6167 24.6388 41.5992 24.6008C41.6167 24.6388 41.6343 24.6782 41.6518 24.7163ZM41.3682 24.1768C41.3507 24.149 41.3331 24.1198 41.3141 24.092C41.3331 24.1198 41.3507 24.1476 41.3682 24.1768ZM41.2674 24.0248C41.2498 23.9985 41.2308 23.9722 41.2118 23.9473C41.2308 23.9722 41.2484 23.9985 41.2674 24.0248ZM41.1606 23.8801C41.1416 23.8552 41.1226 23.8318 41.1036 23.807C41.1226 23.8304 41.1416 23.8552 41.1606 23.8801ZM41.0495 23.7412C41.0305 23.7178 41.0101 23.6959 40.9896 23.6725C41.0101 23.6944 41.0291 23.7178 41.0495 23.7412ZM40.9311 23.6067C40.9107 23.5848 40.8902 23.5628 40.8697 23.5424C40.8902 23.5643 40.9107 23.5848 40.9311 23.6067ZM40.8083 23.4795C40.7879 23.459 40.7659 23.4386 40.744 23.4181C40.7659 23.4386 40.7864 23.459 40.8083 23.4795ZM40.6782 23.3582C40.6563 23.3392 40.6344 23.3202 40.6124 23.3012C40.6344 23.3202 40.6578 23.3392 40.6782 23.3582ZM40.187 22.9839C40.1651 22.9693 40.1417 22.9547 40.1198 22.9401C40.1432 22.9547 40.1651 22.9693 40.187 22.9839ZM39.8815 22.8041C39.8581 22.7924 39.8347 22.7793 39.8099 22.7676C39.8333 22.7793 39.8581 22.7924 39.8815 22.8041ZM39.7207 22.7266C39.6959 22.715 39.6725 22.7047 39.6476 22.693C39.6725 22.7033 39.6959 22.715 39.7207 22.7266ZM39.557 22.6536C39.5321 22.6433 39.5073 22.6346 39.4839 22.6243C39.5087 22.6331 39.5336 22.6433 39.557 22.6536ZM39.3889 22.5907C39.364 22.5819 39.3392 22.5732 39.3143 22.5658C39.3392 22.5746 39.364 22.5819 39.3889 22.5907ZM39.2178 22.5337C39.1944 22.5264 39.1696 22.5205 39.1447 22.5132C39.1696 22.5205 39.193 22.5264 39.2178 22.5337ZM39.0424 22.4854C39.0205 22.4796 39 22.4752 38.9781 22.4708C39 22.4752 39.0219 22.4796 39.0424 22.4854ZM40.1593 29.5024C40.1739 29.4936 40.187 29.4849 40.2017 29.4746C40.187 29.4834 40.1739 29.4922 40.1593 29.5024Z" fill="#194132"></path><path d="M72.3851 6.54722L69.3369 7.97314L72.6546 15.0653L75.7028 13.6394L72.3851 6.54722Z" fill="#194132"></path><path d="M72.3841 16.0543L69.3359 17.4802L72.6449 24.5538L75.6931 23.1279L72.3841 16.0543Z" fill="#194132"></path><path d="M68.7676 39.7504L71.9062 41.107C74.5098 36.6614 75.8576 26.0746 75.8576 26.0746L72.4866 25.7646C71.3624 34.302 68.7676 39.7504 68.7676 39.7504Z" fill="#194132"></path><path d="M83.117 12.1092H102.808V8.74402H85.7002C86.1987 7.86105 86.3945 7.28361 86.3945 7.28361L83.2194 6.04395C80.8 11.1766 76.0811 12.7773 76.0811 12.7773L77.4464 15.9247C79.9316 14.8415 81.7721 13.4556 83.117 12.1107V12.1092Z" fill="#194132"></path><path d="M100.384 17.3033C100.384 15.878 99.2289 14.7231 97.8035 14.7231H81.935C80.5096 14.7231 79.3548 15.878 79.3548 17.3033V23.6946H76.8418V27.0599H79.3548V33.4512C79.3548 34.8765 80.5096 36.0314 81.935 36.0314H95.3301C93.1753 38.1131 90.9985 38.8528 90.9985 38.8528L92.3639 42.0002C96.2393 40.3117 98.5506 37.8835 99.8516 36.0314H102.895V32.6661H100.382V27.0599H102.895V23.6946H100.382V17.3033H100.384ZM97.3811 23.6946H92.6695L89.8758 17.7244H97.3811V23.6946ZM82.356 17.7258H89.7136L86.7986 19.0897L88.9534 23.6961H82.3545V17.7258H82.356ZM87.186 27.0599L89.8086 32.6661H82.3545V27.0599H87.1845H87.186ZM97.3811 32.6661H90.1024L92.9092 31.3534L90.9006 27.0613H97.3811V32.6676V32.6661Z" fill="#194132"></path><path d="M118.073 31.0711L118.501 33.1323C118.023 33.4685 117.538 33.7594 117.054 34.0109V28.6751H121.329V13.1222C121.329 12.1545 120.543 11.3694 119.576 11.3694H117.055V6H113.69V11.3694H111.129C110.161 11.3694 109.376 12.1545 109.376 13.1222V26.9223C109.376 27.89 110.161 28.6751 111.129 28.6751H113.69V35.2257C110.94 35.8338 108.796 35.4713 108.796 35.4713V38.8862C113.788 39.3613 117.362 37.8629 119.256 36.7519L119.639 38.5982L122.505 38.0018L122.543 37.9535L120.986 30.4659L118.074 31.0711H118.073ZM117.054 14.3707H118.326V25.6724H117.054V14.3707ZM113.689 25.6738H112.376V14.3707H113.689V25.6724V25.6738Z" fill="#194132"></path><path d="M139.877 32.2835L137.638 33.7764L140.506 38.0786L142.745 36.5857L139.877 32.2835Z" fill="#194132"></path><path d="M126.242 32.2764L123.374 36.5786L125.613 38.0715L128.481 33.7692L126.242 32.2764Z" fill="#194132"></path><path d="M144.449 29.9791L143.189 26.0701L140.628 26.8961L141.306 28.9982H130.203L138.21 25.7061C138.352 25.6476 138.463 25.5453 138.536 25.421H138.539C138.539 25.421 138.543 25.4166 138.545 25.4137C139.26 24.5 138.469 22.9198 137.491 22.7473C137.337 22.7049 137.173 22.6756 136.986 22.6756H132.485C134.313 21.6026 134.852 21.4184 135.945 20.0165H138.178L138.168 20.0223H138.697L138.694 20.0165H140.726C141.824 20.0165 142.714 19.1087 142.714 17.9903V8.0701C142.714 6.9503 141.824 6.04395 140.726 6.04395H125.291C124.194 6.04395 123.303 6.95177 123.303 8.0701V17.9903C123.303 19.1101 124.194 20.0165 125.291 20.0165H127.679L127.671 20.0223H131.794C130.213 21.2298 128.437 21.664 126.04 22.7341C125.239 23.0923 125.11 23.7574 125.372 24.3144C125.489 24.8948 125.984 25.4079 126.863 25.4079H132.652L123.916 28.9997L123.92 29.0085C123.48 29.1751 123.243 29.4894 123.183 29.8461C122.86 30.6472 123.332 31.7217 124.604 31.7217H131.76L131.741 35.6263C131.741 35.6263 131.686 36.961 129.189 37.2695L129.461 40.6406C129.461 40.6406 135.082 40.1552 135.156 35.4875V31.7217H142.696C142.799 31.7363 142.903 31.7319 143.008 31.7071C143.326 31.6822 143.591 31.5901 143.797 31.4469C144.351 31.1969 144.644 30.5697 144.454 29.9777L144.449 29.9791ZM131.327 16.9568H126.306V14.3313H131.327V16.9568ZM131.327 11.7292H126.306V9.10364H131.327V11.7292ZM134.693 9.10364H139.714V11.7292H134.693V9.10364ZM134.693 14.3313H139.714V16.9568H134.693V14.3313Z" fill="#194132"></path><path d="M179.25 8.73657H179.167H177.073V12.1924V39.0002H180.658V10.0946C180.658 9.34471 180.028 8.73657 179.25 8.73657Z" fill="#194132"></path><path d="M162.919 8.73657H160.194C159.496 8.73657 158.876 9.17221 158.662 9.81397L148.957 39.0031H152.502L155.334 30.6822H167.763L170.565 39.0031H174.11L164.45 9.81543C164.236 9.17221 163.618 8.73657 162.918 8.73657H162.919ZM156.512 27.2278L161.583 12.3284L166.6 27.2278H156.512Z" fill="#194132"></path></g><defs><clipPath id="clip0_3323_7376"><rect width="159.658" height="36" fill="white" transform="translate(21 6)"></rect></clipPath></defs></svg>