<?xml version="1.0" encoding="utf-8"?>
<!-- Generator: Adobe Illustrator 23.0.1, SVG Export Plug-In . SVG Version: 6.00 Build 0)  -->
<svg version="1.1" id="Layer_1" xmlns="http://www.w3.org/2000/svg" xmlns:xlink="http://www.w3.org/1999/xlink" x="0px" y="0px"
	 viewBox="0 0 1000 1000" style="enable-background:new 0 0 1000 1000;" xml:space="preserve">
<style type="text/css">
	.st0{fill:#333333;stroke:#333333;stroke-width:0.412;}
	.st1{fill:#F15C40;}
</style>
<g>
	<g transform="matrix(1.145398 0 0 1.145398 -27.806361 -4.138109)">
		<path class="st0" d="M294,631.6c-4.5-2.6-7.9-6.4-10.5-11.2c-2.6-4.9-3.7-10.1-3.7-16.1c0-6,1.1-11.2,3.7-16.1
			c2.6-4.9,6-8.6,10.1-11.2c4.5-2.7,9.7-4.1,15-4.1c4.9,0,9.1,1.1,12.4,3c3.3,1.9,6.7,4.9,9.7,8.6l-6.4,4.9c-4.1-6-9.4-9.1-15.7-9.1
			c-3.7,0-7.3,1.1-10.5,3c-3,1.9-5.6,4.9-7.5,8.2c-1.9,3.7-2.6,7.5-2.6,12c0,4.5,0.7,8.6,2.6,12c1.9,3.7,4.1,6.4,7.5,8.2
			c3.2,1.9,6.8,3,10.5,3c4.1,0,7.1-0.7,9.7-2.2c2.7-1.6,5.1-3.6,7.1-6l6.7,4.5c-2.6,3.4-6,6-10.1,8.2c-4.1,1.9-8.2,3-13.1,3
			C303.3,635.7,298.5,634.2,294,631.6 M386.1,624.8c3.1-2,5.6-4.9,7.1-8.2c1.9-3.7,2.6-7.5,2.6-12c0-4.5-0.7-8.6-2.6-12
			c-1.9-3.7-4.1-6.4-7.1-8.2s-6.7-3-10.9-3c-3.7,0-7.3,1.1-10.5,3c-3.1,2-5.6,4.9-7.1,8.2c-1.9,3.4-2.6,7.5-2.6,12
			c0,4.5,0.7,8.6,2.6,12.4c1.9,3.7,4.1,6.4,7.1,8.2c3.2,1.9,6.8,3,10.5,3C379.3,627.8,383.1,626.7,386.1,624.8 M360.6,631.5
			c-4.5-2.6-7.9-6.4-10.5-11.2s-3.7-10.1-3.7-16.1c0-6,1.1-11.2,3.7-16.1c2.6-4.9,6-8.2,10.1-11.2c4.5-2.7,9.7-4.1,15-4.1
			c5.3,0,10.5,1.4,15,4.1c4.5,2.6,7.9,6.4,10.5,11.2s3.7,10.1,3.7,16.1c0,6-1.1,11.2-3.7,16.1c-2.6,4.9-6,8.2-10.1,11.2
			c-4.5,2.7-9.7,4.1-15,4.1C370.3,635.7,365.1,634.3,360.6,631.5 M462.6,575.8c3.5,1.5,6.4,4.2,8.2,7.5c1.9,3.4,3,7.1,3,11.6v39
			h-8.6v-35.2c0-11.6-5.2-17.2-15.5-17.2c-6,0-10.5,2.2-13.5,6.4c-3,4.1-4.5,10.1-4.5,17.2v29.2h-8.6v-59.1h8.6v9.7
			c1.9-3.7,4.5-6.7,7.9-8.6c3.4-1.9,7.1-3,11.2-3c4.5,0,8.2,0.7,11.6,2.6 M490.7,574.9h9.7v-19.1h8.6v19.1h13.5v7.9h-13.5v50.6h-8.6
			v-50.6h-9.7V574.9z M574.7,625c3.1-2,5.6-4.9,7.1-8.2c1.9-3.7,2.6-7.5,2.6-12c0-4.5-0.7-8.6-2.6-12c-1.9-3.7-4.1-6.4-7.1-8.2
			s-6.7-3-10.9-3c-3.7,0-7.3,1.1-10.5,3c-3.1,2-5.6,4.9-7.1,8.2c-1.9,3.4-2.6,7.5-2.6,12c0,4.5,0.7,8.6,2.6,12.4
			c1.9,3.7,4.1,6.4,7.1,8.2c3.2,1.9,6.8,3,10.5,3C567.9,628,571.7,626.8,574.7,625 M593,575.1v58.5h-8.6V625c-2.2,3.4-5.4,6.1-9,7.9
			c-3.4,1.9-7.5,3-11.6,3c-5.3,0-10.5-1.4-15-4.1c-4.5-2.6-7.9-6.4-10.5-11.2c-2.6-4.9-3.7-10.1-3.7-16.1c0-6,1.1-11.2,3.7-16.1
			s6-8.2,10.1-11.2c4.5-2.7,9.7-4.1,15-4.1c4.1,0,8.2,0.7,11.6,3c3.5,2,6.6,4.7,9,7.9v-8.6L593,575.1z M620.4,575.1h8.6v58.5h-8.6
			V575.1z M619.6,562c-1.1-1.5-1.9-3-1.9-4.9s0.7-3.4,1.9-4.9c1.5-1.5,3-1.9,4.9-1.9c1.9,0,3.4,0.7,4.9,1.9c1.5,1.1,1.9,3,1.9,4.9
			s-0.7,3.4-1.9,4.9c-1.5,1.5-3,1.9-4.9,1.9C622.6,563.9,621.1,563.1,619.6,562 M695.3,575.9c3.5,1.5,6.4,4.2,8.2,7.5
			c1.9,3.4,3,7.1,3,11.6v39h-8.6v-35.2c0-11.6-5.2-17.2-15.5-17.2c-6,0-10.5,2.2-13.5,6.4s-4.5,10.1-4.5,17.2v29.2h-8.6v-59.1h8.6
			v9.7c1.9-3.7,4.5-6.7,7.9-8.6c3.4-1.9,7.1-3,11.2-3c4-0.1,8,0.8,11.6,2.6 M774.3,599.1c-0.7-6-3-10.5-6-13.9
			c-3.4-3-7.9-4.5-13.1-4.5s-9.7,1.9-13.5,5.2c-3.4,3.4-5.6,7.9-6.4,13.1H774.3z M769.4,577c4.2,2.6,7.7,6.2,10.1,10.5
			c2.6,4.5,3.7,9.4,3.7,15v3.7h-48c0.4,6,2.2,11.2,6,15.5c3.8,4.2,8.6,6.4,14.6,6.4c4.9,0,9.1-1.1,12.4-3c3.3-1.8,6-4.5,7.9-7.9
			l6.7,4.5c-2.5,4.4-6.3,7.9-10.9,10.1c-4.5,2.6-9.7,3.7-16.1,3.7c-5.6,0-10.9-1.5-15-4.1c-4.5-2.6-7.9-6.4-10.5-11.2
			c-2.6-4.9-3.7-10.1-3.7-16.1s1.1-11.2,3.7-16.1c2.6-4.9,6-8.6,10.1-11.2c4.5-2.7,9.7-4.1,15-4.1
			C760.4,573.3,764.9,574.5,769.4,577 M837,574v7.9c-1.8-0.7-3.7-1.1-5.6-1.1c-3.7,0-6.7,1.1-10.1,3c-3,1.9-5.6,4.9-7.5,8.6
			c-1.9,3.7-3,8.2-3,13.5v28.2h-8.6v-58.8h8.6v11.6c2.2-4.5,5.2-7.9,8.6-10.1c3.4-2.2,7.5-3.7,11.6-3.7L837,574 M857.2,632.1
			c-4.1-2.2-7.5-6-9.7-10.1l7.5-3.7c3,6.4,9.1,9.7,18,9.7c4.5,0,7.9-0.7,10.9-2.2c3-1.5,4.1-4.1,4.1-7.5c0-3.4-1.1-6-3.4-7.5
			c-2.2-1.5-6.4-2.6-12-3.4c-7.9-0.7-13.9-2.6-17.2-5.2c-3.4-2.9-5.3-7.2-5.2-11.6c0-5.2,1.9-9.7,6-12.7c3.7-3,9.4-4.5,16.1-4.5
			c11.6,0,19.5,4.5,23.6,13.9l-7.5,3.7c-1.3-3.1-3.5-5.7-6.4-7.5c-2.6-1.5-6-2.2-10.5-2.2s-7.5,0.7-9.7,2.2
			c-2.2,1.5-3.4,3.7-3.4,6.7c0,2.6,1.1,4.9,3.7,6.7c2.6,1.5,6.7,2.6,12.7,3.4c7.5,0.7,12.7,2.6,16.5,5.6s5.2,6.7,5.2,11.6
			c0,3.7-1.2,7.2-3.4,10.1c-2.4,2.8-5.5,5-9,6.4c-3.8,1.5-7.9,2.3-12,2.2C867,635.9,861.9,634.5,857.2,632.1"/>
		<g>
			<path class="st1" d="M38,635.8H25v-95.2h13.1v54l22.5-21.8h17.2l-26.2,25.5L77,635.7H62.3l-19.9-28.9l-4.5,4.5L38,635.8z"/>
			<path class="st1" d="M37.3,635H25.7v-93.7h11.6V596l23.6-22.5h15.4l-25.5,24.7L75.5,635H62.8l-20.2-29.2l-5.2,5.2L37.3,635z"/>
			<path class="st1" d="M36.5,634.3H26.4v-92.2h10.1v55.8l24.7-23.6H74l-24.3,23.6L74,634.3H63.1l-20.2-29.6l-6.4,6L36.5,634.3z"/>
			<path class="st1" d="M35.8,633.5h-8.6v-90.7h8.6v57l25.5-24.7h11.2l-23.6,22.9l24,35.6h-9.4l-20.6-30l-7.1,6.7V633.5z M114.1,638
				c-5.7,0.1-11.3-1.5-16.1-4.5c-4.9-3-8.6-6.7-11.2-12c-2.7-5.3-4.1-11.2-4.1-17.2c0-6,1.4-11.9,4.1-17.2c2.5-5,6.4-9.2,11.2-12
				c4.5-3,10.1-4.5,16.1-4.5c4.4,0,8.8,1,12.7,3c1.9,1.1,4.1,2.6,5.6,4.1v-5.2h12.7v62.9h-12.7v-4.9l-5.6,4.1
				c-3.9,2.2-8.3,3.4-12.7,3.4V638z M113.7,583.3c-3.4,0-6.7,0.7-9.4,2.6c-2.6,1.9-4.9,4.1-6.4,7.5c-1.5,3-2.2,6.7-2.2,11.2
				c-0.1,3.9,0.7,7.7,2.2,11.2c1.5,3.4,3.7,5.6,6.4,7.5c2.6,1.9,6,2.6,9.4,2.6c3.7,0,6.7-0.7,9.4-2.6c2.7-1.9,4.9-4.5,6.4-7.5
				c1.5-3.5,2.3-7.4,2.2-11.2c0.1-3.9-0.7-7.7-2.2-11.2c-1.5-3-3.7-5.5-6.4-7.5C120.5,584,117.5,583.3,113.7,583.3z"/>
			<path class="st1" d="M114.1,637.3c-5.5,0.1-11-1.4-15.7-4.1c-4.5-3-8.2-6.7-10.9-11.6c-2.7-5.2-4.1-11-4.1-16.9
				c0-6.4,1.1-12,3.7-16.9c2.6-4.9,6.4-9,10.9-11.6c4.8-2.8,10.2-4.2,15.7-4.1c4.3,0,8.5,1,12.4,3c2.6,1.5,4.9,3,6.7,5.2v-6h11.6
				v61.5h-11.6v-6c-1.9,1.9-4.1,3.7-6.7,4.9C122.7,636.1,118.6,637.3,114.1,637.3L114.1,637.3z M113.7,582.5c-3.7,0-6.7,0.7-9.7,2.6
				s-5.2,4.5-6.7,7.9c-1.5,3.4-2.6,7.1-2.6,11.2c0,4.5,0.7,8.2,2.6,11.6c1.5,3.4,3.7,6,6.7,7.9c3,1.9,6,2.6,9.7,2.6s7.1-0.7,9.7-2.6
				c3-1.9,5.2-4.5,6.7-7.9c1.5-3.4,2.6-7.1,2.6-11.6c0-4.1-0.7-8.2-2.6-11.6c-1.5-3.4-3.7-6-6.7-7.9
				C120.9,583.3,117.5,582.5,113.7,582.5z"/>
			<path class="st1" d="M114.1,636.5c-5.4,0-10.7-1.4-15.4-4.1c-4.5-2.6-8.2-6.7-10.5-11.2c-2.6-4.9-3.7-10.5-3.7-16.5
				c0-6,1.1-11.6,3.7-16.5c2.6-4.9,6-8.6,10.5-11.2c4.7-2.7,10-4.1,15.4-4.1c4.5,0,8.6,1.1,12,3c3,1.6,5.7,3.7,7.9,6.4v-7.5h9.7v60
				H134v-7.1c-2.2,2.6-4.8,4.8-7.9,6.4C122.4,635.4,118.2,636.5,114.1,636.5z M113.7,581.8c-3.7,0-7.1,1.1-10.1,3
				c-3,1.9-5.2,4.5-7.1,7.9c-1.9,3.4-2.6,7.5-2.6,11.6c0,4.5,0.7,8.6,2.6,12c1.5,3.4,4.1,6,7.1,8.2c3,1.9,6.4,3,10.1,3
				s7.1-1.1,10.5-3c3-1.9,5.2-4.5,7.1-8.2c1.9-3.4,2.6-7.5,2.6-12c0-4.5-0.7-8.2-2.6-11.6c-1.5-3.4-4.1-6-7.1-8.2
				C121.2,582.5,117.9,581.8,113.7,581.8L113.7,581.8z"/>
			<path class="st1" d="M124.6,624.9c3.1-2,5.6-4.9,7.1-8.2c1.9-3.7,2.6-7.5,2.6-12c0-4.5-0.7-8.6-2.6-12c-1.9-3.7-4.1-6.4-7.1-8.2
				c-3-1.9-6.7-3-10.9-3c-3.7,0-7.3,1.1-10.5,3c-3.1,2-5.6,4.9-7.1,8.2c-1.9,3.4-2.6,7.5-2.6,12c0,4.5,0.7,8.6,2.6,12.4
				c1.9,3.7,4.1,6.4,7.1,8.2c3.2,1.9,6.8,3,10.5,3C117.6,627.9,121.3,626.8,124.6,624.9 M143,575v58.5h-8.6v-8.6
				c-2.2,3.4-5.4,6.1-9,7.9c-3.4,1.9-7.5,3-11.6,3c-5.3,0-10.5-1.4-15-4.1c-4.5-2.6-7.9-6.4-10.5-11.2s-3.7-10.1-3.7-16.1
				c0-6,1.1-11.2,3.7-16.1c2.6-4.9,6-8.2,10.1-11.2c4.5-2.7,9.7-4.1,15-4.1c4.1,0,8.2,0.7,11.6,3c3.5,2,6.6,4.7,9,7.9V575L143,575z
				 M156.5,572.8h10.1v-19.1h12.7v19.1h13.5v12.4h-13.5v50.6h-12.7v-50.5h-10.1V572.8z"/>
			<path class="st1" d="M157.2,573.6h10.1v-19.1h11.2v19.1H192v10.9h-13.5V635h-11.2v-50.6h-10.1V573.6z"/>
			<path class="st1" d="M158,574.3h10.1v-19.1h9.7v19.1h13.5v9.4h-13.5v50.6h-9.7v-50.6H158L158,574.3z"/>
			<path class="st1" d="M158.7,575h10.1v-19.1h8.2V575h13.5v7.9h-13.5v50.6h-8.2v-50.6h-10.1V575z M232.1,638
				c-5.7,0.1-11.3-1.5-16.1-4.5c-4.9-3-8.6-6.7-11.2-12c-2.7-5.3-4.1-11.2-4.1-17.2c0-6,1.4-11.9,4.1-17.2c2.5-5,6.4-9.2,11.2-12
				c4.5-3,10.1-4.5,16.1-4.5c4.4,0,8.8,1,12.7,3c1.9,1.1,4.1,2.6,5.6,4.1v-5.2h12.7v62.9h-12.7v-4.9l-5.6,4.1
				c-3.9,2.2-8.3,3.4-12.7,3.4L232.1,638z M232.1,583.3c-3.4,0-6.7,0.7-9.4,2.6c-2.6,1.9-4.9,4.1-6.4,7.5c-1.5,3-2.2,6.7-2.2,11.2
				c-0.1,3.9,0.7,7.7,2.2,11.2c1.5,3.4,3.7,5.6,6.4,7.5c2.6,1.9,6,2.6,9.4,2.6c3.7,0,6.7-0.7,9.4-2.6c2.7-1.9,4.9-4.5,6.4-7.5
				c1.5-3.5,2.3-7.4,2.2-11.2c0.1-3.9-0.7-7.7-2.2-11.2c-1.5-3-3.7-5.5-6.4-7.5C238.9,584,235.5,583.3,232.1,583.3z"/>
			<path class="st1" d="M232.1,637.3c-5.5,0.1-11-1.4-15.7-4.1c-4.5-3-8.2-6.7-10.9-11.6c-2.7-5.2-4.1-11-4.1-16.9
				c0-6.4,1.1-12,3.7-16.9c2.6-4.9,6.4-9,10.9-11.6c4.8-2.8,10.2-4.2,15.7-4.1c4.3,0,8.5,1,12.4,3c2.6,1.5,4.9,3,6.7,5.2v-6h11.6
				v61.5h-11.6v-6c-1.9,1.9-4.1,3.7-6.7,4.9C240.8,636.1,236.7,637.3,232.1,637.3L232.1,637.3z M232.1,582.5c-3.7,0-6.7,0.7-9.7,2.6
				s-5.2,4.5-6.7,7.9s-2.6,7.1-2.6,11.2c0,4.5,0.7,8.2,2.6,11.6c1.5,3.4,3.7,6,6.7,7.9c3,1.9,6,2.6,9.7,2.6s7.1-0.7,9.7-2.6
				c3-1.9,5.2-4.5,6.7-7.9c1.5-3.4,2.6-7.1,2.6-11.6c0-4.1-0.7-8.2-2.6-11.6c-1.5-3.4-3.7-6-6.7-7.9
				C238.9,583.3,235.5,582.5,232.1,582.5L232.1,582.5z"/>
			<path class="st1" d="M232.1,636.5c-5.4,0-10.7-1.4-15.4-4.1c-4.5-2.6-8.2-6.7-10.5-11.2c-2.6-4.9-3.7-10.5-3.7-16.5
				c0-6,1.1-11.6,3.7-16.5c2.6-4.9,6-8.6,10.5-11.2c4.7-2.7,10-4.1,15.4-4.1c4.5,0,8.6,1.1,12,3c3,1.6,5.7,3.7,7.9,6.4v-7.5h9.7v60
				H252v-7.1c-2.2,2.6-4.8,4.8-7.9,6.4C240.4,635.4,236.7,636.5,232.1,636.5z M232.1,581.8c-3.7,0-7.1,1.1-10.1,3
				c-3,1.9-5.2,4.5-7.1,7.9c-1.9,3.4-2.6,7.5-2.6,11.6c0,4.5,0.7,8.6,2.6,12c1.5,3.4,4.1,6,7.1,8.2c3,1.9,6.4,3,10.1,3
				c3.7,0,7.1-1.1,10.5-3c3-1.9,5.2-4.5,7.1-8.2c1.9-3.4,2.6-7.5,2.6-12c0-4.5-0.7-8.2-2.6-11.6c-1.5-3.4-4.1-6-7.1-8.2
				C239.3,582.5,235.9,581.8,232.1,581.8L232.1,581.8z"/>
			<path class="st1" d="M242.7,624.9c3.1-2,5.6-4.9,7.1-8.2c1.9-3.7,2.6-7.5,2.6-12c0-4.5-0.7-8.6-2.6-12c-1.9-3.7-4.1-6.4-7.1-8.2
				s-6.7-3-10.9-3c-3.7,0-7.5,1.1-10.5,3c-3.1,2-5.6,4.9-7.1,8.2c-1.9,3.4-2.6,7.5-2.6,12c0,4.5,0.7,8.6,2.6,12.4
				c1.9,3.7,4.1,6.4,7.1,8.2c3,1.9,6.7,3,10.5,3C235.9,627.9,239.7,626.7,242.7,624.9 M261,575v58.5h-8.6v-8.6c-2.2,3.4-5.2,6-9,7.9
				c-3.4,1.9-7.5,3-11.6,3c-5.3,0-10.5-1.4-15-4.1c-4.5-2.6-7.9-6.4-10.5-11.2c-2.6-4.9-3.7-10.1-3.7-16.1c0-6,1.1-11.2,3.7-16.1
				c2.6-4.9,6-8.2,10.1-11.2c4.5-2.7,9.7-4.1,15-4.1c4.1,0,8.2,0.7,11.6,3c3.5,2,6.6,4.7,9,7.9V575L261,575z"/>
		</g>
	</g>
	<path class="st1" d="M595.7,468.6L483.3,580.5L371.4,468.6l19.9-19.9l91.9,91.9l91.9-91.9L595.7,468.6z M535.9,466.8l-29-29l29-29
		l29,29L535.9,466.8z M491,443.7l34,34l-34,34V443.7z M475.6,511.2l-73.4-73.4l73.4-73.4V511.2z M491,364.4l33.5,33.5L491,431.5
		V364.4z M371.4,407l111.9-111.9L595.7,407l-19.9,19.9L483.3,335l-91.9,91.9L371.4,407z M617,407L483.3,273.4L349.7,407l30.8,30.8
		l-30.8,30.8l133.6,133.6l133.6-133.6l-30.3-30.8L617,407z"/>
</g>
</svg>
