<svg style="width:100%; height: auto;" viewBox="0 0 75 25" fill="currentColor" xmlns="http://www.w3.org/2000/svg">
<path d="M25.3096 0H28.8916V3.88205H25.3096V0ZM25.3096 5.56137H28.8916V23.9326H25.3096V5.56137Z"></path>
<path d="M31.9557 0H35.5378V12.715L47.9008 2.78978H52.8635L39.8835 13.0086L53.2141 23.9326H48.0164L35.5352 13.8307V23.9326H31.9531V0H31.9544H31.9557Z"></path>
<path d="M0 23.9339V0H12.8631C21.5286 0 22.4637 5.39123 22.4637 7.70825C22.4637 10.0253 21.5286 15.4178 12.8605 15.4178H3.58203V23.9352H0V23.9339ZM3.58203 11.8643H12.2163C16.7036 11.8643 18.618 10.6214 18.618 7.70825C18.618 4.79509 16.7036 3.55216 12.2163 3.55216H3.58203V11.863V11.8643Z"></path>
<path d="M62.8196 24.2401C59.6415 24.2401 57.1089 23.77 55.688 22.9154C54.0996 21.9608 53.3281 20.4828 53.3281 18.3969C53.3281 13.0797 58.6882 12.3849 67.5666 11.2355C68.7511 11.0822 69.9642 10.925 71.2409 10.7471C71.2409 7.36509 69.3888 6.16632 64.1638 6.16632C59.8389 6.16632 57.9102 7.45211 57.9102 10.3341H54.2983C54.2983 5.51693 57.9868 2.64014 64.1651 2.64014C71.5175 2.64014 74.7956 5.05846 74.7956 10.4809V19.7541C74.7956 22.2569 74.9424 23.9141 74.9437 23.931H71.6864C71.6864 23.9219 71.5942 23.0193 71.6864 21.5607C70.6655 23.1621 67.103 24.2388 62.8222 24.2388L62.8196 24.2401ZM71.2409 13.8876C65.8847 14.5084 62.1144 15.0292 59.8714 15.7046C57.7894 16.3306 56.9413 17.102 56.9413 18.3658C56.9413 20.9581 60.1987 21.3451 62.139 21.3451C65.3081 21.3451 67.4472 20.9581 68.8719 20.1282C70.4655 19.1996 71.2409 17.6488 71.2409 15.3877V13.8876Z"></path>
</svg>