<svg width="351" height="57" viewBox="0 0 351 57" fill="none" xmlns="http://www.w3.org/2000/svg">
<path d="M5.5 31.7812H18.875C22.0417 31.7812 24.8125 31.1458 27.1875 29.875C29.5625 28.6042 31.4062 26.8125 32.7188 24.5C34.0521 22.1875 34.7188 19.4792 34.7188 16.375V16.3125C34.7188 13.2292 34.0521 10.5312 32.7188 8.21875C31.4062 5.90625 29.5625 4.11458 27.1875 2.84375C24.8125 1.55208 22.0417 0.90625 18.875 0.90625H5.5V8.375H16.5625C19.2708 8.375 21.375 9.0625 22.875 10.4375C24.3958 11.8125 25.1562 13.7812 25.1562 16.3438V16.4062C25.1562 18.9688 24.3958 20.9479 22.875 22.3438C21.375 23.7188 19.2708 24.4062 16.5625 24.4062H5.5V31.7812ZM0.75 46H10.1875V0.90625H0.75V46ZM39.5312 46H48.6562V27.25C48.6562 25.625 48.9375 24.25 49.5 23.125C50.0625 22 50.875 21.1458 51.9375 20.5625C53 19.9792 54.2812 19.6875 55.7812 19.6875C56.4479 19.6875 57.0729 19.7396 57.6562 19.8438C58.2396 19.9271 58.7188 20.0417 59.0938 20.1875V12.1562C58.7604 12.0521 58.3646 11.9688 57.9062 11.9062C57.4479 11.8438 56.9688 11.8125 56.4688 11.8125C54.5104 11.8125 52.875 12.3854 51.5625 13.5312C50.25 14.6771 49.3438 16.2812 48.8438 18.3438H48.6562V12.5H39.5312V46ZM77.1562 46.6875C80.5312 46.6875 83.4583 46 85.9375 44.625C88.4167 43.2292 90.3333 41.2292 91.6875 38.625C93.0625 36.0208 93.75 32.8958 93.75 29.25V29.1875C93.75 25.5625 93.0625 22.4583 91.6875 19.875C90.3125 17.2708 88.375 15.2812 85.875 13.9062C83.3958 12.5104 80.4792 11.8125 77.125 11.8125C73.7917 11.8125 70.8854 12.5104 68.4062 13.9062C65.9271 15.3021 64 17.3021 62.625 19.9062C61.25 22.4896 60.5625 25.5833 60.5625 29.1875V29.25C60.5625 32.875 61.2396 35.9896 62.5938 38.5938C63.9479 41.1979 65.8646 43.1979 68.3438 44.5938C70.8229 45.9896 73.7604 46.6875 77.1562 46.6875ZM77.1875 39.5312C75.6875 39.5312 74.3854 39.1354 73.2812 38.3438C72.1771 37.5312 71.3229 36.3646 70.7188 34.8438C70.1354 33.3021 69.8438 31.4375 69.8438 29.25V29.1875C69.8438 27.0208 70.1458 25.1771 70.75 23.6562C71.3542 22.1354 72.1979 20.9792 73.2812 20.1875C74.3854 19.375 75.6667 18.9688 77.125 18.9688C78.6042 18.9688 79.8958 19.375 81 20.1875C82.1042 20.9792 82.9583 22.1354 83.5625 23.6562C84.1667 25.1771 84.4688 27.0208 84.4688 29.1875V29.25C84.4688 31.4375 84.1667 33.3021 83.5625 34.8438C82.9792 36.3646 82.1354 37.5312 81.0312 38.3438C79.9479 39.1354 78.6667 39.5312 77.1875 39.5312ZM98.4688 46H107.594V25.7812C107.594 24.5104 107.833 23.3958 108.312 22.4375C108.812 21.4792 109.5 20.7292 110.375 20.1875C111.25 19.6458 112.26 19.375 113.406 19.375C114.531 19.375 115.49 19.6042 116.281 20.0625C117.094 20.5 117.719 21.1458 118.156 22C118.594 22.8542 118.812 23.8854 118.812 25.0938V46H127.594V25.625C127.594 24.375 127.833 23.2812 128.312 22.3438C128.792 21.4062 129.458 20.6771 130.312 20.1562C131.188 19.6354 132.198 19.375 133.344 19.375C134.531 19.375 135.521 19.6042 136.312 20.0625C137.125 20.5208 137.74 21.1979 138.156 22.0938C138.594 22.9896 138.812 24.0833 138.812 25.375V46H147.938V23.0938C147.938 20.8229 147.479 18.8438 146.562 17.1562C145.646 15.4688 144.365 14.1562 142.719 13.2188C141.073 12.2812 139.156 11.8125 136.969 11.8125C135.323 11.8125 133.802 12.0938 132.406 12.6562C131.031 13.2188 129.833 14.0208 128.812 15.0625C127.812 16.0833 127.062 17.3021 126.562 18.7188H126.375C126.021 17.2396 125.406 15.9896 124.531 14.9688C123.677 13.9479 122.625 13.1667 121.375 12.625C120.125 12.0833 118.719 11.8125 117.156 11.8125C114.906 11.8125 112.948 12.3854 111.281 13.5312C109.635 14.6771 108.469 16.2083 107.781 18.125H107.594V12.5H98.4688V46ZM153.719 56.9375H162.844V40.2812H163.031C163.656 41.6146 164.469 42.7604 165.469 43.7188C166.469 44.6562 167.646 45.3854 169 45.9062C170.354 46.4271 171.823 46.6875 173.406 46.6875C176.219 46.6875 178.635 45.9896 180.656 44.5938C182.677 43.1979 184.229 41.1979 185.312 38.5938C186.417 35.9896 186.969 32.875 186.969 29.25V29.2188C186.969 25.5938 186.417 22.4792 185.312 19.875C184.208 17.2708 182.635 15.2812 180.594 13.9062C178.552 12.5104 176.115 11.8125 173.281 11.8125C171.698 11.8125 170.24 12.0729 168.906 12.5938C167.594 13.1146 166.438 13.8646 165.438 14.8438C164.458 15.8229 163.667 16.9896 163.062 18.3438H162.844V12.5H153.719V56.9375ZM170.281 39.125C168.802 39.125 167.5 38.7292 166.375 37.9375C165.271 37.125 164.396 35.9792 163.75 34.5C163.125 33.0208 162.812 31.2812 162.812 29.2812V29.25C162.812 27.2083 163.125 25.4583 163.75 24C164.375 22.5208 165.25 21.3854 166.375 20.5938C167.5 19.7812 168.802 19.375 170.281 19.375C171.781 19.375 173.083 19.7708 174.188 20.5625C175.312 21.3333 176.177 22.4583 176.781 23.9375C177.385 25.4167 177.688 27.1771 177.688 29.2188V29.25C177.688 31.2708 177.385 33.0208 176.781 34.5C176.177 35.9792 175.323 37.125 174.219 37.9375C173.115 38.7292 171.802 39.125 170.281 39.125ZM205.031 46.6875C205.99 46.6875 206.833 46.6458 207.562 46.5625C208.312 46.5 208.938 46.4271 209.438 46.3438V39.6562C209.167 39.6979 208.875 39.7396 208.562 39.7812C208.25 39.8021 207.885 39.8125 207.469 39.8125C206.094 39.8125 205.052 39.5104 204.344 38.9062C203.656 38.2812 203.312 37.1875 203.312 35.625V19.375H209.438V12.5H203.312V4.3125H194.094V12.5H189.438V19.375H194.094V36.625C194.094 40.2083 194.99 42.7812 196.781 44.3438C198.573 45.9062 201.323 46.6875 205.031 46.6875ZM215.25 46H224.688V27H245V46H254.438V0.90625H245V19.2188H224.688V0.90625H215.25V46ZM276.406 46.6875C278.802 46.6875 280.885 46.375 282.656 45.75C284.448 45.125 285.958 44.2917 287.188 43.25C288.438 42.2083 289.427 41.0625 290.156 39.8125C290.885 38.5625 291.375 37.3229 291.625 36.0938L291.719 35.75H283.344L283.281 35.9375C283.073 36.5625 282.677 37.1771 282.094 37.7812C281.51 38.3854 280.76 38.8854 279.844 39.2812C278.927 39.6771 277.844 39.875 276.594 39.875C275.01 39.875 273.646 39.5312 272.5 38.8438C271.354 38.1354 270.469 37.125 269.844 35.8125C269.24 34.5 268.938 32.9167 268.938 31.0625V27.5312C268.938 25.6146 269.24 24 269.844 22.6875C270.469 21.3542 271.323 20.3438 272.406 19.6562C273.51 18.9688 274.771 18.625 276.188 18.625C277.604 18.625 278.844 18.9583 279.906 19.625C280.99 20.2917 281.833 21.2917 282.438 22.625C283.042 23.9375 283.344 25.5729 283.344 27.5312V31.0312L287.688 25.6562H264.406V31.4062H292V28.5938C292 25.2188 291.344 22.2708 290.031 19.75C288.74 17.2292 286.896 15.2812 284.5 13.9062C282.125 12.5104 279.302 11.8125 276.031 11.8125C272.76 11.8125 269.917 12.5312 267.5 13.9688C265.104 15.3854 263.24 17.4062 261.906 20.0312C260.594 22.6354 259.938 25.7188 259.938 29.2812V29.3125C259.938 32.875 260.594 35.9583 261.906 38.5625C263.24 41.1667 265.135 43.1771 267.594 44.5938C270.052 45.9896 272.99 46.6875 276.406 46.6875ZM296.719 46H305.844V27.25C305.844 25.625 306.125 24.25 306.688 23.125C307.25 22 308.062 21.1458 309.125 20.5625C310.188 19.9792 311.469 19.6875 312.969 19.6875C313.635 19.6875 314.26 19.7396 314.844 19.8438C315.427 19.9271 315.906 20.0417 316.281 20.1875V12.1562C315.948 12.0521 315.552 11.9688 315.094 11.9062C314.635 11.8438 314.156 11.8125 313.656 11.8125C311.698 11.8125 310.062 12.3854 308.75 13.5312C307.438 14.6771 306.531 16.2812 306.031 18.3438H305.844V12.5H296.719V46ZM334.344 46.6875C337.719 46.6875 340.646 46 343.125 44.625C345.604 43.2292 347.521 41.2292 348.875 38.625C350.25 36.0208 350.938 32.8958 350.938 29.25V29.1875C350.938 25.5625 350.25 22.4583 348.875 19.875C347.5 17.2708 345.562 15.2812 343.062 13.9062C340.583 12.5104 337.667 11.8125 334.312 11.8125C330.979 11.8125 328.073 12.5104 325.594 13.9062C323.115 15.3021 321.188 17.3021 319.812 19.9062C318.438 22.4896 317.75 25.5833 317.75 29.1875V29.25C317.75 32.875 318.427 35.9896 319.781 38.5938C321.135 41.1979 323.052 43.1979 325.531 44.5938C328.01 45.9896 330.948 46.6875 334.344 46.6875ZM334.375 39.5312C332.875 39.5312 331.573 39.1354 330.469 38.3438C329.365 37.5312 328.51 36.3646 327.906 34.8438C327.323 33.3021 327.031 31.4375 327.031 29.25V29.1875C327.031 27.0208 327.333 25.1771 327.938 23.6562C328.542 22.1354 329.385 20.9792 330.469 20.1875C331.573 19.375 332.854 18.9688 334.312 18.9688C335.792 18.9688 337.083 19.375 338.188 20.1875C339.292 20.9792 340.146 22.1354 340.75 23.6562C341.354 25.1771 341.656 27.0208 341.656 29.1875V29.25C341.656 31.4375 341.354 33.3021 340.75 34.8438C340.167 36.3646 339.323 37.5312 338.219 38.3438C337.135 39.1354 335.854 39.5312 334.375 39.5312Z" fill="black"/>
</svg>
