<svg width="100" height="30" viewBox="0 0 100 30" fill="none" xmlns="http://www.w3.org/2000/svg">
<path d="M53.3729 29.0949L51.7191 27.8881C51.9468 27.8464 52.1651 27.7648 52.3639 27.6472C52.8138 27.3715 53.0418 26.9223 53.0418 26.3093C53.0418 25.6963 52.8255 25.2163 52.4028 24.9406C52.0912 24.7363 51.6568 24.638 51.0782 24.638H49.6367C49.5845 24.6336 49.5318 24.6406 49.4826 24.6584C49.4333 24.6762 49.3885 24.7044 49.3514 24.7412C49.3143 24.7779 49.2857 24.8222 49.2677 24.8709C49.2497 24.9197 49.2427 24.9718 49.2471 25.0235V29.332C49.2452 29.3699 49.2513 29.4078 49.265 29.4432C49.2786 29.4787 49.2996 29.5109 49.3265 29.5379C49.3534 29.5649 49.3857 29.5861 49.4214 29.6001C49.457 29.6141 49.4952 29.6206 49.5335 29.6192C49.5726 29.6214 49.6118 29.6155 49.6485 29.6019C49.6852 29.5884 49.7187 29.5674 49.7469 29.5405C49.7751 29.5135 49.7973 29.4811 49.8122 29.4452C49.8271 29.4093 49.8343 29.3708 49.8335 29.332V25.2086H51.0763C51.4178 25.1896 51.7572 25.2729 52.0503 25.4476C52.1853 25.5467 52.2922 25.6786 52.3604 25.8306C52.4287 25.9826 52.4561 26.1495 52.4398 26.3151C52.4398 26.7238 52.3035 26.9975 52.021 27.1556L51.9548 27.1941C51.7386 27.3175 51.649 27.3676 51.1756 27.3676H50.8503C50.7918 27.3655 50.7342 27.3822 50.6861 27.4152C50.6379 27.4482 50.6019 27.4958 50.5834 27.5508C50.5715 27.5855 50.5656 27.622 50.5659 27.6587C50.5649 27.7086 50.5769 27.7579 50.6008 27.8018C50.6247 27.8457 50.6596 27.8827 50.7023 27.9093L53.0398 29.5826C53.0957 29.625 53.1642 29.648 53.2346 29.6481C53.2724 29.6498 53.3101 29.6436 53.3454 29.6301C53.3806 29.6165 53.4126 29.5958 53.4394 29.5693C53.4661 29.5429 53.487 29.5112 53.5007 29.4763C53.5144 29.4414 53.5207 29.4041 53.519 29.3667C53.521 29.3127 53.5086 29.2591 53.4829 29.2113C53.4573 29.1636 53.4193 29.1234 53.3729 29.0949Z" fill="#0047FF"/>
<path d="M56.9904 24.5708C56.6478 24.5669 56.308 24.6313 55.9911 24.7601C55.6741 24.889 55.3867 25.0796 55.1457 25.3206C54.9019 25.5559 54.7081 25.8371 54.5757 26.1477C54.4434 26.4582 54.3752 26.7918 54.3752 27.1288C54.3752 27.4659 54.4434 27.7995 54.5757 28.11C54.7081 28.4206 54.9019 28.7018 55.1457 28.937C55.6392 29.414 56.3016 29.6811 56.9914 29.6811C57.6812 29.6811 58.3436 29.414 58.8371 28.937C59.0802 28.7006 59.2733 28.4185 59.4051 28.1074C59.537 27.7963 59.6049 27.4623 59.6049 27.125C59.6049 26.7876 59.537 26.4536 59.4051 26.1425C59.2733 25.8314 59.0802 25.5494 58.8371 25.3129C58.596 25.0721 58.3081 24.8821 57.9906 24.7545C57.6732 24.6269 57.333 24.5644 56.9904 24.5708ZM58.4105 28.5264C58.0329 28.8989 57.5216 29.1081 56.9885 29.1081C56.4554 29.1081 55.944 28.8989 55.5665 28.5264C55.3785 28.3439 55.2291 28.1262 55.1272 27.8859C55.0252 27.6456 54.9727 27.3875 54.9727 27.1269C54.9727 26.8663 55.0252 26.6083 55.1272 26.368C55.2291 26.1277 55.3785 25.9099 55.5665 25.7274C55.7526 25.5422 55.9738 25.3952 56.2175 25.2949C56.4613 25.1946 56.7226 25.1429 56.9865 25.1429C57.2505 25.1429 57.5118 25.1946 57.7555 25.2949C57.9992 25.3952 58.2205 25.5422 58.4066 25.7274C58.5936 25.9103 58.7421 26.1281 58.8434 26.3681C58.9447 26.6082 58.9969 26.8658 58.9969 27.1259C58.9969 27.3861 58.9447 27.6437 58.8434 27.8838C58.7421 28.1239 58.5936 28.3416 58.4066 28.5245L58.4105 28.5264Z" fill="#0047FF"/>
<path d="M64.8174 24.6595C64.7795 24.6565 64.7414 24.6614 64.7055 24.6739C64.6696 24.6864 64.6368 24.7062 64.6091 24.7319C64.5814 24.7577 64.5594 24.7889 64.5446 24.8236C64.5299 24.8583 64.5226 24.8956 64.5232 24.9332V28.5477L61.4065 24.7308C61.3813 24.6948 61.3475 24.6656 61.308 24.6457C61.2686 24.6259 61.2248 24.616 61.1805 24.6171C61.1442 24.6168 61.1081 24.622 61.0734 24.6325L61.0559 24.6094V24.6383C61.0083 24.6566 60.9661 24.6864 60.9331 24.725C60.8858 24.7784 60.8596 24.8468 60.8591 24.9178V29.3284C60.8674 29.3994 60.9018 29.4648 60.9556 29.5123C61.0095 29.5598 61.0792 29.5861 61.1513 29.5861C61.2235 29.5861 61.2931 29.5598 61.347 29.5123C61.4009 29.4648 61.4352 29.3994 61.4435 29.3284V25.7082L64.5602 29.5347L64.5739 29.5501C64.6029 29.5817 64.638 29.6072 64.6771 29.6251C64.7163 29.643 64.7587 29.6529 64.8018 29.6542C64.8344 29.6542 64.8668 29.6484 64.8972 29.6369C64.9447 29.6193 64.9864 29.5893 65.018 29.5501C65.0649 29.4964 65.0917 29.4283 65.094 29.3574V24.9506C65.097 24.9131 65.092 24.8753 65.0794 24.8398C65.0668 24.8043 65.0468 24.7719 65.0208 24.7444C64.9947 24.717 64.9632 24.6953 64.9282 24.6807C64.8931 24.666 64.8554 24.6588 64.8174 24.6595Z" fill="#0047FF"/>
<path d="M71.3917 27.3602H68.6509C68.5734 27.3602 68.4991 27.3906 68.4443 27.4449C68.3895 27.4991 68.3587 27.5726 68.3587 27.6493C68.3587 27.726 68.3895 27.7995 68.4443 27.8538C68.4991 27.908 68.5734 27.9385 68.6509 27.9385H71.0216C70.9724 28.1217 70.8864 28.2931 70.7685 28.4425C70.6507 28.5919 70.5035 28.7162 70.3359 28.8079C70.0085 29.0107 69.6293 29.1164 69.2431 29.1125C68.9827 29.1153 68.7245 29.0641 68.4853 28.9622C68.2461 28.8602 68.0311 28.7098 67.8542 28.5206C67.5733 28.2447 67.3818 27.8922 67.3041 27.5082C67.2264 27.1241 67.2661 26.7258 67.418 26.3642C67.5699 26.0025 67.8272 25.6937 68.1571 25.4773C68.487 25.2609 68.8746 25.1466 69.2704 25.149C69.5385 25.1465 69.8041 25.2004 70.0496 25.3071C70.2123 25.3784 70.3681 25.4642 70.5151 25.5635C70.8015 25.7563 70.9982 25.5886 71.0313 25.4189C71.0664 25.1992 70.8365 25.0334 70.4469 24.856C70.0835 24.6769 69.6841 24.5807 69.2782 24.5746C68.9358 24.5688 68.5958 24.6317 68.2788 24.7596C67.9617 24.8875 67.6741 25.0777 67.4335 25.3187C67.1926 25.5544 67.0013 25.8351 66.8708 26.1445C66.7403 26.4539 66.6731 26.7858 66.6731 27.1211C66.6731 27.4564 66.7403 27.7883 66.8708 28.0977C67.0013 28.4071 67.1926 28.6878 67.4335 28.9235C67.6648 29.1679 67.9446 29.3624 68.2552 29.4951C68.5659 29.6277 68.9008 29.6957 69.2392 29.6946C69.7146 29.699 70.1835 29.5849 70.6028 29.363C71.0906 29.1007 71.4534 28.6578 71.6118 28.1312C71.6811 27.9547 71.7091 27.7649 71.6936 27.5761C71.6769 27.5107 71.6375 27.4533 71.5823 27.4138C71.5271 27.3744 71.4596 27.3554 71.3917 27.3602Z" fill="#0047FF"/>
<path d="M76.9862 28.7116L76.9044 28.7617C76.5675 28.9695 76.1827 29.0889 75.7863 29.1087C75.5169 29.1165 75.2487 29.0692 74.9987 28.9696C74.7486 28.8701 74.522 28.7206 74.3331 28.5304C73.9581 28.1545 73.7479 27.6475 73.7479 27.1193C73.7479 26.5911 73.9581 26.0841 74.3331 25.7082C74.5218 25.5194 74.7476 25.3707 74.9964 25.2713C75.2453 25.1718 75.5121 25.1237 75.7804 25.1299C76.0382 25.1342 76.2918 25.1954 76.5226 25.3092C76.6945 25.3866 76.8588 25.4795 77.0135 25.5868C77.403 25.8817 77.5784 25.5868 77.5686 25.4422C77.5686 25.2494 77.3875 25.0798 76.9453 24.8639C76.4586 24.6043 75.9004 24.5065 75.3532 24.5849C74.806 24.6634 74.2988 24.9139 73.9065 25.2995C73.6647 25.5385 73.4729 25.8224 73.342 26.1348C73.2112 26.4472 73.1438 26.7821 73.1438 27.1203C73.1438 27.4585 73.2112 27.7933 73.342 28.1057C73.4729 28.4182 73.6647 28.702 73.9065 28.941C74.1525 29.1798 74.4444 29.3675 74.7649 29.493C75.0854 29.6185 75.428 29.6792 75.7726 29.6716C76.1838 29.6614 76.5874 29.5592 76.9531 29.3728C77.1197 29.2985 77.2766 29.2047 77.4206 29.0933C77.5277 29.0027 77.6368 28.8658 77.5764 28.7193C77.5527 28.6701 77.515 28.6288 77.468 28.6004C77.4209 28.572 77.3666 28.5577 77.3115 28.5593C77.1909 28.5794 77.0783 28.6321 76.9862 28.7116Z" fill="#0047FF"/>
<path d="M82.6974 29.0548H79.9547V24.9256C79.9464 24.8547 79.9121 24.7892 79.8582 24.7417C79.8043 24.6942 79.7347 24.668 79.6625 24.668C79.5904 24.668 79.5207 24.6942 79.4668 24.7417C79.413 24.7892 79.3786 24.8547 79.3703 24.9256V29.2341C79.3666 29.2857 79.374 29.3374 79.3923 29.3859C79.4105 29.4344 79.4391 29.4784 79.4761 29.515C79.513 29.5515 79.5575 29.5798 79.6065 29.5979C79.6555 29.6159 79.7078 29.6233 79.7599 29.6196H82.6974C82.7352 29.6228 82.7731 29.6182 82.809 29.6061C82.8448 29.594 82.8777 29.5746 82.9056 29.5492C82.9334 29.5238 82.9556 29.493 82.9708 29.4586C82.9859 29.4243 82.9937 29.3872 82.9935 29.3497C82.9958 29.3106 82.9896 29.2714 82.9756 29.2348C82.9615 29.1981 82.9398 29.1648 82.9119 29.137C82.884 29.1091 82.8504 29.0875 82.8135 29.0733C82.7765 29.0591 82.737 29.0528 82.6974 29.0548ZM82.6974 29.4403V29.423V29.4403Z" fill="#0047FF"/>
<path d="M85.82 24.5709C85.4774 24.5671 85.1375 24.6315 84.8206 24.7603C84.5037 24.8892 84.2162 25.0798 83.9753 25.3208C83.7314 25.5561 83.5376 25.8373 83.4053 26.1479C83.273 26.4584 83.2048 26.792 83.2048 27.129C83.2048 27.4661 83.273 27.7997 83.4053 28.1102C83.5376 28.4208 83.7314 28.702 83.9753 28.9372C84.4692 29.4171 85.1337 29.686 85.8258 29.686C86.518 29.686 87.1825 29.4171 87.6764 28.9372C87.9195 28.7008 88.1126 28.4187 88.2445 28.1076C88.3763 27.7965 88.4442 27.4625 88.4442 27.1252C88.4442 26.7878 88.3763 26.4538 88.2445 26.1427C88.1126 25.8316 87.9195 25.5496 87.6764 25.3131C87.4342 25.0711 87.1447 24.8804 86.8255 24.7528C86.5063 24.6252 86.1642 24.5633 85.82 24.5709ZM85.82 29.1088C85.5553 29.114 85.2923 29.0653 85.0474 28.9659C84.8025 28.8664 84.5808 28.7182 84.3961 28.5305C84.2081 28.348 84.0587 28.1302 83.9568 27.8899C83.8548 27.6496 83.8023 27.3916 83.8023 27.131C83.8023 26.8703 83.8548 26.6123 83.9568 26.372C84.0587 26.1317 84.2081 25.9139 84.3961 25.7314C84.6284 25.5003 84.9149 25.3294 85.23 25.234C85.5451 25.1386 85.8791 25.1217 86.2025 25.1847C86.5258 25.2476 86.8284 25.3886 87.0835 25.595C87.3385 25.8015 87.5382 26.067 87.6647 26.3681C87.7913 26.6692 87.8407 26.9965 87.8088 27.3211C87.7769 27.6457 87.6645 27.9574 87.4816 28.2287C87.2988 28.5 87.0511 28.7224 86.7606 28.8763C86.4701 29.0302 86.1456 29.1107 85.8161 29.1107L85.82 29.1088Z" fill="#0047FF"/>
<path d="M93.6781 24.6596C93.64 24.6563 93.6016 24.661 93.5654 24.6734C93.5292 24.6857 93.496 24.7054 93.4679 24.7312C93.4398 24.7569 93.4175 24.7882 93.4024 24.8231C93.3873 24.8579 93.3797 24.8954 93.3801 24.9333V27.5377C93.3916 27.7527 93.3576 27.9677 93.2801 28.1689C93.2026 28.3701 93.0834 28.553 92.9301 28.7059C92.7813 28.8426 92.6065 28.9486 92.4159 29.0178C92.2253 29.087 92.0226 29.1179 91.8198 29.1087C91.6098 29.1193 91.3999 29.0857 91.204 29.0101C91.0082 28.9345 90.8307 28.8186 90.6834 28.6701C90.5361 28.5217 90.4224 28.3439 90.3496 28.1487C90.2769 27.9535 90.2468 27.7452 90.2614 27.5377V24.9333C90.2623 24.8959 90.2553 24.8588 90.2409 24.8243C90.2264 24.7898 90.2048 24.7586 90.1775 24.7329C90.1502 24.7071 90.1177 24.6872 90.0822 24.6746C90.0466 24.662 90.0088 24.6569 89.9712 24.6596C89.9332 24.6566 89.895 24.6615 89.859 24.674C89.823 24.6865 89.7901 24.7062 89.7622 24.7319C89.7344 24.7577 89.7122 24.7889 89.6972 24.8235C89.6822 24.8582 89.6747 24.8956 89.6751 24.9333V27.5377C89.6751 28.1021 89.9016 28.6434 90.3049 29.0425C90.7082 29.4416 91.2553 29.6659 91.8256 29.6659C92.396 29.6659 92.943 29.4416 93.3463 29.0425C93.7496 28.6434 93.9762 28.1021 93.9762 27.5377V24.9333C93.9772 24.8952 93.97 24.8574 93.9551 24.8223C93.9402 24.7872 93.9179 24.7556 93.8897 24.7297C93.8615 24.7038 93.828 24.6842 93.7915 24.6721C93.7551 24.66 93.7164 24.6557 93.6781 24.6596Z" fill="#0047FF"/>
<path d="M99.1791 25.2685C98.6746 24.8502 98.0103 24.6381 97.1844 24.6381H96.0409C95.9888 24.6344 95.9365 24.6418 95.8875 24.6599C95.8385 24.6779 95.794 24.7062 95.7571 24.7428C95.7201 24.7793 95.6916 24.8234 95.6733 24.8718C95.6551 24.9203 95.6476 24.9721 95.6513 25.0237V29.2377C95.6476 29.2893 95.6551 29.341 95.6733 29.3895C95.6916 29.438 95.7201 29.482 95.7571 29.5186C95.794 29.5552 95.8385 29.5834 95.8875 29.6015C95.9365 29.6195 95.9888 29.627 96.0409 29.6232H97.1844C98.0571 29.6232 98.7564 29.3861 99.2629 28.9196C99.5059 28.6904 99.6971 28.4128 99.8236 28.1051C99.9502 27.7974 100.009 27.4666 99.9972 27.1345C100.014 26.7823 99.9496 26.4308 99.8077 26.1072C99.6659 25.7837 99.4508 25.4967 99.1791 25.2685ZM98.8557 28.4762C98.4661 28.8618 97.8993 29.0545 97.1922 29.0545H96.2357V25.2126H97.1922C97.7524 25.1917 98.3028 25.3626 98.7505 25.6965C98.9662 25.8673 99.1376 26.0865 99.2507 26.3359C99.3639 26.5853 99.4154 26.8577 99.4011 27.1307C99.4116 27.3808 99.3686 27.6303 99.2749 27.8628C99.1813 28.0953 99.0391 28.3056 98.8577 28.4801L98.8557 28.4762Z" fill="#0047FF"/>
<path d="M18.9818 8.89269C19.5113 8.87958 20.025 8.71139 20.4579 8.40939C20.8909 8.10739 21.2236 7.68514 21.414 7.19603C21.6045 6.70692 21.6442 6.1729 21.528 5.66149C21.4118 5.15008 21.145 4.68424 20.7613 4.32287C20.3776 3.9615 19.8943 3.72082 19.3724 3.63126C18.8505 3.5417 18.3135 3.60729 17.8293 3.81972C17.3451 4.03215 16.9353 4.38189 16.6519 4.82472C16.3685 5.26756 16.2242 5.78359 16.2371 6.30761C16.2457 6.65573 16.3235 6.99877 16.4661 7.31711C16.6087 7.63546 16.8133 7.92287 17.0682 8.16294C17.3231 8.40301 17.6233 8.59101 17.9516 8.71623C18.28 8.84144 18.63 8.90141 18.9818 8.89269Z" fill="#0047FF"/>
<path d="M42.9125 14.6507C42.8249 11.2854 41.5986 8.04646 39.43 5.45271C37.2615 2.85896 34.2761 1.06039 30.952 0.345058C29.9373 0.131142 28.9039 0.0155791 27.8665 0C26.8516 0 25.6146 0.0751849 24.6368 0.341211C24.3392 0.435904 24.0541 0.56533 23.7875 0.726755L23.7427 0.753734L23.6706 0.79808L23.5362 0.896395C23.2289 1.13045 22.9801 1.43119 22.8089 1.77544C22.6377 2.11969 22.5486 2.49825 22.5486 2.88195C22.5659 3.56609 22.8569 4.21545 23.3576 4.68747C23.8583 5.15949 24.5279 5.4156 25.2192 5.39955C25.3478 5.39955 25.5075 5.37063 25.6088 5.35713L25.6789 5.34557C26.4786 5.19971 27.2912 5.13512 28.1041 5.1528C29.7959 5.21492 31.4438 5.70268 32.8921 6.57003C34.3405 7.43738 35.5417 8.6557 36.3822 10.11C37.2226 11.5643 37.6748 13.2066 37.6958 14.8818C37.7169 16.557 37.3062 18.2099 36.5025 19.6844C35.6988 21.1589 34.5287 22.4064 33.1026 23.3092C31.6764 24.2119 30.0413 24.7401 28.3517 24.8438C26.662 24.9476 24.9735 24.6235 23.4455 23.9022C21.9175 23.1808 20.6005 22.086 19.6188 20.7211C18.5903 19.2406 17.9416 17.7524 17.7741 15.2463C17.7228 13.2622 16.9949 11.3535 15.7087 9.83056C14.4225 8.3076 12.6537 7.25988 10.6897 6.85769C8.72561 6.45549 6.68186 6.72247 4.89055 7.61522C3.09924 8.50797 1.66568 9.97402 0.822876 11.7751C-0.0199317 13.5761 -0.222444 15.6063 0.248251 17.5357C0.718946 19.4651 1.83518 21.1803 3.41553 22.4024C4.99588 23.6245 6.94745 24.2818 8.95304 24.2674C10.9586 24.253 12.9003 23.5677 14.4626 22.323C16.1214 25.2479 18.7209 27.54 21.8475 28.8347C24.9742 30.1293 28.4485 30.3523 31.7179 29.4681C34.9873 28.5839 37.8641 26.6433 39.8908 23.9549C41.9175 21.2665 42.9776 17.9847 42.9027 14.6314L42.9125 14.6507ZM12.5575 15.5798C12.5117 16.5213 12.0958 17.4078 11.3984 18.0498C10.7011 18.6919 9.7777 19.0386 8.82552 19.0159C7.87333 18.9933 6.96785 18.6031 6.3025 17.9286C5.63715 17.2541 5.26469 16.3489 5.26469 15.4064C5.26469 14.4638 5.63715 13.5586 6.3025 12.8841C6.96785 12.2097 7.87333 11.8194 8.82552 11.7968C9.7777 11.7741 10.7011 12.1209 11.3984 12.7629C12.0958 13.4049 12.5117 14.2914 12.5575 15.2329C12.5575 15.2907 12.5575 15.3485 12.5575 15.4064C12.5575 15.4642 12.5595 15.5124 12.5575 15.5702V15.5798Z" fill="#0047FF"/>
<path d="M81.9184 3.12114H98.0864C98.2882 3.1234 98.483 3.04807 98.6299 2.91102C98.7783 2.77429 98.8688 2.58689 98.8831 2.38668C98.8989 2.26622 98.8848 2.14377 98.842 2.0299C98.7993 1.91604 98.7291 1.8142 98.6376 1.73318C98.4852 1.60037 98.2895 1.52644 98.0864 1.52498H81.9086C81.8001 1.52345 81.6924 1.54366 81.5919 1.58441C81.4915 1.62516 81.4004 1.68561 81.3242 1.7621C81.2468 1.83694 81.1862 1.92717 81.1466 2.02686C81.107 2.12654 81.0892 2.23342 81.0944 2.34042C81.0937 2.54318 81.1678 2.73921 81.3028 2.89174C81.3823 2.97208 81.4786 3.03424 81.5849 3.07387C81.6912 3.11349 81.8051 3.12963 81.9184 3.12114Z" fill="#0047FF"/>
<path d="M98.4681 17.7214C97.7922 16.6708 97.2468 15.8611 96.8026 15.2481C96.3585 14.6351 96.0565 14.2014 95.889 13.9353C95.753 13.7032 95.5792 13.4948 95.3748 13.3184C95.2266 13.1886 95.0401 13.1095 94.843 13.0929C94.7366 13.0878 94.6303 13.1064 94.5322 13.1474C94.4341 13.1885 94.3465 13.2509 94.2761 13.33C94.1693 13.4441 94.1012 13.5883 94.0813 13.7426C94.0499 13.9375 94.0952 14.1368 94.2079 14.2997C94.3034 14.4346 94.5138 14.7238 94.8137 15.1324L95.3981 15.9787C95.9708 16.7749 96.4812 17.6115 97.0481 18.4057L84.2305 18.5715C84.8692 17.7426 85.4585 16.8775 85.9954 15.9806C86.4901 15.1421 87.0959 14.0259 87.7972 12.6649C88.3771 11.5575 88.9005 10.4219 89.3653 9.26252H98.9843C99.0837 9.26317 99.1823 9.24424 99.2743 9.20685C99.3662 9.16945 99.4498 9.11433 99.52 9.04469C99.6644 8.9086 99.7531 8.72472 99.7694 8.52806C99.7852 8.40777 99.7713 8.28546 99.7289 8.17164C99.6865 8.05782 99.6168 7.95587 99.5259 7.87456C99.3727 7.74161 99.1763 7.66771 98.9726 7.66638H81.104C80.9955 7.66309 80.8874 7.68231 80.7867 7.72282C80.6861 7.76332 80.5951 7.8242 80.5197 7.90155C80.4474 7.97647 80.3908 8.06475 80.353 8.16133C80.3152 8.25791 80.2971 8.36091 80.2995 8.46444C80.2947 8.66988 80.3685 8.86954 80.506 9.02349C80.5842 9.10505 80.6795 9.1687 80.7851 9.20999C80.8908 9.25128 81.0043 9.26921 81.1177 9.26252H87.5459C87.1564 10.2514 86.6382 11.358 86.0168 12.5551C85.335 13.8698 84.6961 15.0303 84.1117 16.0076C83.7434 16.665 83.3274 17.2951 82.867 17.8929C82.6942 18.1064 82.4982 18.3003 82.2826 18.4712C82.1717 18.5488 82.0668 18.6345 81.9689 18.7276C81.9136 18.7612 81.8625 18.8013 81.817 18.8472C81.7407 18.9226 81.6813 19.013 81.6427 19.1127C81.6041 19.2123 81.5872 19.3189 81.593 19.4255C81.595 19.6274 81.6719 19.8216 81.8092 19.971C81.8859 20.0511 81.9793 20.1136 82.0829 20.1542C82.1865 20.1949 82.2979 20.2126 82.4092 20.2062H82.4248L98.0318 20.0134C98.0649 20.0751 98.096 20.1329 98.1253 20.1908C98.2114 20.3769 98.3235 20.5502 98.4584 20.7055C98.5925 20.8473 98.7757 20.9338 98.9714 20.9477C99.1671 20.9617 99.3609 20.902 99.5142 20.7807C99.8843 20.4761 99.7908 20.0423 99.6291 19.6607C99.2788 18.9934 98.8912 18.346 98.4681 17.7214Z" fill="#0047FF"/>
<path d="M57.2981 9.48651H51.123C50.6231 9.46939 50.1354 9.64177 49.7595 9.96845C49.3582 10.354 49.2335 10.8648 49.2335 11.395V20.3396C49.2304 20.5076 49.2885 20.6712 49.3972 20.8003C49.4632 20.8742 49.5454 20.9321 49.6377 20.9695C49.7299 21.007 49.8295 21.0229 49.9289 21.0162H49.966C50.0699 21.0163 50.1729 20.9957 50.2687 20.9557C50.3645 20.9158 50.4513 20.8573 50.5239 20.7836C50.5965 20.71 50.6535 20.6226 50.6915 20.5269C50.7295 20.4311 50.7477 20.3287 50.7451 20.2259C50.7451 20.0485 50.7451 19.8692 50.7451 19.6899V11.7747C50.7451 11.2407 50.9886 11.0036 51.536 11.0036H57.0546C57.4032 11.0036 57.5902 11.0749 57.7227 11.2234C57.7764 11.2889 57.816 11.3646 57.8391 11.4458C57.8622 11.527 57.8683 11.6121 57.8571 11.6957V19.8557C57.8571 20.1622 57.8182 20.4687 58.0363 20.7232C58.1083 20.804 58.1958 20.8699 58.2936 20.9171C58.3915 20.9643 58.4978 20.9918 58.6065 20.9981C58.7152 21.0043 58.824 20.9892 58.9268 20.9536C59.0295 20.918 59.1241 20.8627 59.2051 20.7907C59.2704 20.7374 59.324 20.6714 59.3625 20.5968C59.401 20.5222 59.4237 20.4405 59.4291 20.3569V11.3468C59.4525 10.9619 59.3675 10.5782 59.1837 10.2383C58.8837 9.70048 58.387 9.48651 57.2981 9.48651Z" fill="#0047FF"/>
<path d="M58.8566 1.33204H50.2408C50.057 1.33107 49.8779 1.38926 49.7304 1.49784C49.6435 1.56635 49.5748 1.65485 49.5303 1.75565C49.4858 1.85645 49.4669 1.96647 49.4753 2.07615C49.4654 2.18065 49.4776 2.28604 49.5111 2.38561C49.5446 2.48518 49.5988 2.57675 49.6701 2.65447C49.7516 2.72937 49.8477 2.78698 49.9526 2.82378C50.0574 2.86058 50.1687 2.87578 50.2797 2.86844H58.8566C58.9508 2.86741 59.0436 2.84559 59.1281 2.80457C59.2127 2.76355 59.287 2.70437 59.3455 2.63134C59.4799 2.47322 59.5494 2.27098 59.5403 2.06459C59.5432 1.8812 59.4746 1.70377 59.3487 1.56915C59.2228 1.43453 59.0494 1.35307 58.8644 1.34169L58.8566 1.33204Z" fill="#0047FF"/>
<path d="M54.349 8.51668H56.8482C58.3384 8.51668 58.652 7.62993 58.652 6.88583V5.20486C58.652 4.04822 58.0482 3.59521 56.932 3.59521H51.8868C50.7706 3.59521 50.1667 4.04437 50.1667 5.20486V6.88969C50.1667 7.63379 50.4804 8.52054 51.9706 8.52054L54.349 8.51668ZM51.6881 6.42704V5.63281C51.6822 5.55779 51.6917 5.48237 51.7162 5.41113C51.7406 5.33988 51.7795 5.2743 51.8303 5.21835C51.9771 5.13839 52.1446 5.10349 52.3114 5.11811H56.5073C56.6742 5.10337 56.8418 5.13828 56.9885 5.21835C57.0394 5.27433 57.0784 5.33986 57.1032 5.41107C57.1279 5.48227 57.1379 5.55768 57.1326 5.63281V6.42704C57.1326 6.56391 57.1326 6.84535 56.9982 6.93981C56.8283 7.0165 56.6402 7.04519 56.4547 7.0227H52.364C52.1786 7.04519 51.9905 7.0165 51.8206 6.93981C51.692 6.84535 51.6881 6.56391 51.6881 6.42704Z" fill="#0047FF"/>
<path d="M68.9858 18.4254C68.8202 17.9319 68.6196 17.2784 68.4501 16.7174C68.2806 16.1564 68.0118 15.4875 67.4021 15.4837C67.2287 15.4801 67.059 15.5339 66.92 15.6366C66.781 15.7392 66.6806 15.8849 66.6346 16.0504C66.5587 16.3801 66.7651 16.9468 66.921 17.3458C67.0768 17.7449 67.071 17.7314 67.3106 18.5217L67.3787 18.7569L64.8581 18.8456V14.7723H66.3833C67.5365 14.7723 67.9027 14.2114 68.0333 13.847C68.1011 13.5793 68.1313 13.3036 68.1229 13.0277V5.15107C68.1458 4.82957 68.1081 4.50667 68.0118 4.19879C67.7703 3.59348 66.9989 3.54143 66.434 3.54143H64.8581V1.59828C64.8565 1.51707 64.8384 1.43702 64.8049 1.36284C64.7714 1.28867 64.7233 1.2219 64.6633 1.16647C64.5854 1.09502 64.4929 1.04087 64.3921 1.00762C64.2914 0.974376 64.1846 0.962806 64.0789 0.9737C63.8672 0.967036 63.6615 1.04324 63.5062 1.18576C63.4479 1.23845 63.4007 1.30201 63.3673 1.3728C63.3338 1.44359 63.3149 1.52022 63.3114 1.59828V3.54143H61.9342C61.2875 3.54143 60.2414 3.4836 60.07 4.31252C60.0287 4.61528 60.0176 4.92134 60.0369 5.22625V12.9371C60.0308 13.2234 60.0589 13.5094 60.1207 13.7892C60.1905 14.0365 60.3249 14.2612 60.5103 14.4408C60.7206 14.6567 61.1414 14.7627 61.7978 14.7627H63.3309V18.8919L60.6388 18.9825C60.5311 18.9847 60.4249 19.0086 60.3268 19.0526C60.2287 19.0967 60.1407 19.1601 60.0681 19.2389C59.9945 19.3157 59.9376 19.4067 59.9011 19.5061C59.8646 19.6056 59.8491 19.7115 59.8557 19.8172C59.8632 20.0196 59.9441 20.2126 60.0836 20.3608C60.1606 20.435 60.2523 20.4927 60.3528 20.5302C60.4534 20.5677 60.5607 20.5842 60.668 20.5786H60.705L67.8657 20.33L67.8813 20.3781C67.9573 20.6018 68.0255 20.9275 68.2222 21.0798C68.3102 21.1399 68.412 21.177 68.5183 21.1878C68.6899 21.2257 68.8693 21.2089 69.0307 21.1396C69.192 21.0703 69.327 20.9522 69.4163 20.8023C69.6111 20.4649 69.4786 20.0736 69.391 19.7246C69.3033 19.3757 69.1553 18.9227 68.9858 18.4254ZM64.8698 5.10674H65.9567C66.1112 5.09484 66.2665 5.11792 66.4106 5.17421C66.4795 5.20646 66.5347 5.26176 66.5664 5.33036C66.6076 5.43667 66.6268 5.55007 66.6229 5.66385V12.1699C66.6425 12.4179 66.6366 12.6672 66.6054 12.914C66.5959 12.9532 66.5808 12.9908 66.5606 13.0258C66.5311 13.0798 66.4891 13.1261 66.4379 13.1608C66.3806 13.1991 66.3121 13.2175 66.2431 13.2128L64.8659 13.2244L64.8698 5.10674ZM63.3114 13.2244L61.9323 13.2128C61.8632 13.2178 61.7946 13.1994 61.7375 13.1608C61.6571 13.101 61.6022 13.0137 61.5836 12.9159C61.5514 12.6692 61.5455 12.4198 61.566 12.1718V5.66385C61.5622 5.55007 61.5814 5.43667 61.6225 5.33036C61.6537 5.26137 61.709 5.20589 61.7784 5.17421C61.9225 5.11792 62.0777 5.09484 62.2322 5.10674H63.3192L63.3114 13.2244Z" fill="#0047FF"/>
<path d="M56.9435 14.2649H55.8507C55.989 14.2649 56.2403 13.9237 56.2988 13.8331C56.6123 13.425 56.857 12.9693 57.0234 12.4837C57.1052 12.2177 57.189 11.9054 57.037 11.6567C56.7935 11.2827 56.1819 11.1786 55.8682 11.5256C55.6189 11.7994 55.5468 12.1598 55.3715 12.4721C55.2516 12.6841 55.1141 12.8859 54.9605 13.0755C54.8144 13.2567 54.6177 13.4071 54.5709 13.6442C54.5359 13.753 54.5342 13.8697 54.5661 13.9795C54.598 14.0893 54.662 14.1873 54.7501 14.2611H53.3418C53.4232 14.2355 53.4986 14.1938 53.5632 14.1384C53.6279 14.0831 53.6804 14.0153 53.7177 13.9391C53.8658 13.6384 53.708 13.2953 53.6028 13.0061C53.4998 12.72 53.3787 12.4406 53.2405 12.1695C53.1352 11.9249 52.9838 11.7025 52.7944 11.5141C52.3619 11.1285 51.6256 11.3213 51.5302 11.8996C51.4854 12.1753 51.6354 12.4143 51.799 12.6707C52.1788 13.2953 52.321 13.8003 52.4438 13.9738C52.5287 14.1048 52.6578 14.2017 52.808 14.2476H52.0094C51.5302 14.2591 51.0101 14.3478 50.9731 14.9454C50.9555 15.2249 51.0743 15.6895 51.6431 15.6895H53.5229V20.0944C53.5229 20.5069 53.6729 20.9715 54.2709 20.9715C54.869 20.9715 55.0501 20.5609 55.0501 20.0944V15.6895C55.7241 15.6895 56.3591 15.7107 57.0331 15.6895C57.1506 15.6884 57.2659 15.6579 57.3682 15.6008C57.4771 15.5347 57.5652 15.4397 57.6223 15.3266C57.6795 15.2135 57.7035 15.0868 57.6915 14.9608C57.6967 14.8642 57.6805 14.7677 57.6441 14.6779C57.6077 14.5881 57.552 14.5073 57.4808 14.4411C57.4095 14.3748 57.3246 14.3247 57.2318 14.2943C57.139 14.2639 57.0406 14.2539 56.9435 14.2649Z" fill="#0047FF"/>
</svg>
