<svg id="Layer_1" data-name="Layer 1" xmlns="http://www.w3.org/2000/svg" viewBox="0 0 430.07 99.38"><defs><style>.cls-1{fill:#fff;}.cls-2{fill:#313131;}.cls-3{fill:#19b5fe;}</style></defs><title>seeklogocom-logo</title><path class="cls-1" d="M112.91,241c6.27-.8,9.66,5.4,10.65,10.65q-10.24.06-20.48,0C104.85,247,107.14,241.44,112.91,241Z" transform="translate(-40.97 -206.31)"/><path class="cls-1" d="M168.84,241.07c6.33-1.08,9.92,5.27,10.89,10.59q-10.24.06-20.48,0C161,247.1,163.18,241.59,168.84,241.07Z" transform="translate(-40.97 -206.31)"/><path class="cls-1" d="M313.87,243.34c4.19-2.89,10.8-1.17,12.68,3.72,3.74,7.89,3.44,19.83-4.84,24.72C306.74,274.71,304.32,250.66,313.87,243.34Z" transform="translate(-40.97 -206.31)"/><path class="cls-1" d="M376.18,243.15c5.9-3.61,13.72,2,13.55,8.51.13,5,.56,10.13-.91,15-2.53,6-11,7.54-15.34,2.59C367.17,261.94,367.92,248.65,376.18,243.15Z" transform="translate(-40.97 -206.31)"/><path class="cls-1" d="M439.17,243.34c4.19-2.89,10.85-1.17,12.7,3.78,3.72,7.91,3.39,19.94-5,24.72C432,274.47,429.67,250.66,439.17,243.34Z" transform="translate(-40.97 -206.31)"/><path class="cls-1" d="M41,248.78c2.07,11.32,15,12.9,23.27,17.72-.24,1.19-.73,3.52-1,4.69-7,3.22-14.39-.24-21.15-2.27-.28,1.6-.84,4.8-1.12,6.37Z" transform="translate(-40.97 -206.31)"/><path class="cls-2" d="M205.16,206.31h16.35c-.06,15.49.13,31-.13,46.49,4.47-7.82,9.53-15.3,14.63-22.73q10,0,20.11,0Q246.53,241,237,252c7.41,10.61,14.43,21.47,21.78,32.13-6.87,0-13.76,0-20.63-.06q-6.45-10.92-12.53-22c-1.38,1.69-2.74,3.37-4.13,5.08q0,8.46,0,17c-5.44,0-10.91,0-16.35,0Z" transform="translate(-40.97 -206.31)"/><path class="cls-2" d="M41,244.14c4.17-15.9,24.09-15.81,36.81-11.62-.86,3.8-1.81,7.58-2.77,11.34-6.57-2.44-14.41-4.9-19.77,1.25,5.14,4.52,11.9,6.11,17.78,9.38,9,5.1,9.29,20.07.32,25.43-9.64,6.24-21.86,4.28-32.38,1.77v-6.39c.28-1.58.84-4.77,1.12-6.37,6.76,2,14.15,5.49,21.15,2.27.26-1.17.76-3.5,1-4.69C55.92,261.68,43,260.1,41,248.78Z" transform="translate(-40.97 -206.31)"/><path class="cls-2" d="M93.75,239.75c8-10.63,25-12.88,35.63-5.08,8.23,6.55,9.38,17.82,8.71,27.61-11.67.45-23.35,0-35,.3,4.58,12.23,20.11,10.2,30.14,7.32q1.2,5.57,2.44,11.15c-11.77,3.48-25.43,5-36.6-1.08C85.56,271.71,84.65,251.61,93.75,239.75ZM112.91,241c-5.77.43-8.06,6-9.83,10.65q10.24.06,20.48,0C122.57,246.41,119.17,240.21,112.91,241Z" transform="translate(-40.97 -206.31)"/><path class="cls-2" d="M149.92,239.75c8.25-11,26.31-13.11,36.75-4.13,7.3,6.76,8.17,17.33,7.56,26.66-11.67.43-23.33,0-35,.3,4.58,12.23,20.09,10.2,30.14,7.32q1.2,5.57,2.44,11.15c-11.75,3.46-25.34,5-36.51-1C141.75,271.79,140.8,251.64,149.92,239.75Zm18.93,1.32c-5.66.52-7.82,6-9.59,10.59q10.24.06,20.48,0C178.76,246.34,175.17,240,168.84,241.07Z" transform="translate(-40.97 -206.31)"/><path class="cls-3" d="M263.49,206.31h16.35q0,38.89,0,77.75l-16.35,0Q263.46,245.2,263.49,206.31Z" transform="translate(-40.97 -206.31)"/><path class="cls-3" d="M309.79,231.22c8.71-2.23,19-1.75,26.21,4.15,14,10.87,12.72,36.21-2.92,45-11.77,6.81-29.1,4.58-37.05-7C286.5,259.2,292.2,235.71,309.79,231.22Zm4.08,12.12c-9.55,7.32-7.13,31.37,7.84,28.43,8.27-4.88,8.58-16.83,4.84-24.72C324.67,242.17,318.06,240.45,313.87,243.34Z" transform="translate(-40.97 -206.31)"/><path class="cls-3" d="M357,241.59c6.29-12.31,24.87-15.6,34.57-5.4.28-1.45.84-4.32,1.12-5.75,4.58-.63,9.25-.41,13.87-.48-1.64,19.18,1,38.59-1.53,57.68-2.05,12-14.63,18-25.8,18h-6A77.5,77.5,0,0,1,357.21,302q1.65-6.06,3.35-12.08c7.78,2.31,16.79,5.55,24.39,1,4.64-2.42,4.41-8.27,5.75-12.64-7.56,5.79-18.51,8.38-26.88,2.74C351.38,272.55,350.32,254,357,241.59Zm19.16,1.56c-8.25,5.51-9,18.8-2.7,26.05,4.32,4.95,12.81,3.37,15.34-2.59,1.47-4.82,1-10,.91-15C389.9,245.11,382.07,239.54,376.18,243.15Z" transform="translate(-40.97 -206.31)"/><path class="cls-3" d="M435,231.24c8.71-2.25,19-1.77,26.23,4.1,14,10.82,12.77,36.1-2.79,45-11.82,6.87-29.27,4.64-37.22-7.11C411.85,259.11,417.53,235.76,435,231.24Zm4.13,12.1c-9.51,7.32-7.17,31.13,7.71,28.5,8.38-4.77,8.71-16.81,5-24.72C450,242.17,443.37,240.45,439.17,243.34Z" transform="translate(-40.97 -206.31)"/></svg>