<?xml version="1.0" encoding="utf-8"?>
<!-- Generator: Adobe Illustrator 26.0.3, SVG Export Plug-In . SVG Version: 6.00 Build 0)  -->
<svg version="1.0" id="katman_1" xmlns="http://www.w3.org/2000/svg" xmlns:xlink="http://www.w3.org/1999/xlink" x="0px" y="0px"
	 viewBox="0 0 600 450" style="enable-background:new 0 0 600 450;" xml:space="preserve">
<style type="text/css">
	.st0{clip-path:url(#SVGID_00000129918153243977969020000001800815046482734464_);fill:#253551;}
	.st1{fill:#253551;}
	.st2{fill:#00D9BA;}
</style>
<g>
	<g>
		<defs>
			<rect id="SVGID_1_" x="70" y="108.5" width="459" height="232.9"/>
		</defs>
		<clipPath id="SVGID_00000163791109104522345160000010428869722021309078_">
			<use xlink:href="#SVGID_1_"  style="overflow:visible;"/>
		</clipPath>
		<path style="clip-path:url(#SVGID_00000163791109104522345160000010428869722021309078_);fill:#253551;" d="M276.8,113.1
			c-3-3-7-4.6-11.2-4.5H136.8V124c-0.1,4,1.6,7.8,4.5,10.6c2.8,3,6.8,4.7,10.9,4.8h41.1v154.1h15.4c4.2,0.1,8.3-1.5,11.2-4.5
			c2.9-2.8,4.6-6.6,4.6-10.7V139.4h56.8v-14.5C281.4,120.5,279.7,116.3,276.8,113.1L276.8,113.1z M276.8,113.1"/>
	</g>
	<path class="st1" d="M358.7,165.1c-4.2-0.1-8.3,1.5-11.3,4.5c-2.9,2.8-4.6,6.7-4.6,10.7v61.9c-5.4,15.1-22,22.4-39.8,22.4
		c-14.7,0-21.9-6.8-21.9-20.8v-63.3c0-4.1-1.7-7.9-4.6-10.7c-2.9-3-7-4.7-11.2-4.7h-15.1v81.3c0,31.3,16.1,47.1,49.4,47.1
		c16.4,0,34.3-5.6,43-16.9c0.2,8.1-2.4,16-7.4,22.4c-6.3,8.3-18.5,11.5-31.3,11.5c-12.7-0.2-25.2-2.6-37-7.2
		c-1.9-0.5-3.9-0.8-5.9-0.8c-6.3-0.8-11.6,4.5-10.9,10.8v12.6l0.9,0.5c16,9.3,34.3,13.9,52.8,13.4c43.5,0,69.7-23.4,69.7-69.7v-105
		H358.7z M500.7,237c-1.4-4.4-4.4-8.3-8.3-10.8c2.6-4.1,4.6-8.5,5.9-13.2l19.5-47.9h-17.7c-9.7,0-15.9,3.9-18.4,11.6l-13.2,30.8
		c-1,2.5-4.1,3.9-9.1,3.9h-29V124c0-3.9-1.6-7.6-4.4-10.3c-2.8-3.2-6.9-5-11.2-5.1h-15.4v185h15.4c4.3,0.1,8.4-1.6,11.3-4.6
		c3-2.8,4.7-6.7,4.5-10.8v-36h34c4.8,0,6.1,2.2,6.7,3.9l15.9,36.6c2.4,7.3,8.5,10.9,18.2,10.9H523L500.7,237z M500.7,237"/>
	<path class="st2" d="M152.2,197.2c-2-20.9-19.4-37-40.4-37.3H70v42.8c0.9,21.5,18.2,38.7,39.7,39.4h42.5V197.2z M152.2,197.2"/>
</g>
</svg>
