<?xml version="1.0" standalone="no"?><!DOCTYPE svg PUBLIC "-//W3C//DTD SVG 1.1//EN" "http://www.w3.org/Graphics/SVG/1.1/DTD/svg11.dtd"><svg t="1729338910612" class="icon" viewBox="0 0 1024 1024" version="1.1" xmlns="http://www.w3.org/2000/svg" p-id="11566" xmlns:xlink="http://www.w3.org/1999/xlink" width="200" height="200"><path d="M912 648v144c0 89.76-178.22 144-400 144S112 881.76 112 792v-144c0 89.76 178.22 144 400 144 219.56 0 396.432-53.16 399.948-141.32L912 648z m0-208v144c0 89.76-178.22 144-400 144S112 673.76 112 584v-144c0 89.76 178.22 144 400 144 219.56 0 396.432-53.16 399.948-141.32L912 440z m0-208v144c0 89.76-178.22 144-400 144S112 465.76 112 376V232c0 89.76 178.22 144 400 144 219.56 0 396.432-53.16 399.948-141.32L912 232z" fill="#2E75E6" p-id="11567"></path><path d="M512 88C290.22 88 112 142.24 112 232c0 89.76 178.22 144 400 144s400-54.24 400-144c0-89.76-178.22-144-400-144z" fill="#35CBB9" p-id="11568"></path></svg>